<svg width="898" height="898" viewBox="0 0 898 898" fill="none" xmlns="http://www.w3.org/2000/svg">
<path d="M741.64 61.98H63.4883V592.429H741.64V61.98Z" fill="#FFF5F6"/>
<path d="M741.641 592.428C741.641 589.214 741.479 382.099 741.245 61.9799L741.641 62.3571L63.5428 62.4469L64.0098 61.9799C64.0098 253.254 64.0098 434.129 64.0098 592.428L63.5967 592.015L741.748 592.428L63.5967 592.842H63.1836V592.411C63.1836 434.111 63.1836 253.236 63.1836 61.962V61.495H63.7044H741.802H742.179V61.8901C741.748 382.099 741.641 589.214 741.641 592.428Z" fill="#E0E0E0"/>
<path d="M162.357 191.849H122.36C121.699 191.846 121.045 191.713 120.436 191.457C119.826 191.201 119.274 190.826 118.81 190.356C118.346 189.885 117.979 189.327 117.732 188.714C117.484 188.101 117.36 187.445 117.367 186.784V131.503C117.367 130.177 117.893 128.905 118.829 127.966C119.765 127.027 121.035 126.497 122.36 126.492H147.72L167.35 146.733V186.784C167.357 187.445 167.234 188.101 166.986 188.714C166.739 189.327 166.372 189.885 165.908 190.356C165.444 190.826 164.891 191.201 164.282 191.457C163.672 191.713 163.018 191.846 162.357 191.849Z" fill="#EBEBEB"/>
<path d="M147.723 126.492V142.081C147.723 142.692 147.843 143.297 148.077 143.862C148.311 144.426 148.653 144.939 149.085 145.371C149.517 145.803 150.03 146.145 150.594 146.379C151.159 146.613 151.763 146.733 152.374 146.733H167.353L147.723 126.492Z" fill="#F5F5F5"/>
<path d="M147.938 143.446C147.945 144.624 148.356 145.763 149.101 146.674C149.846 147.586 150.88 148.215 152.032 148.457C152.19 148.51 152.352 148.546 152.517 148.565C154.475 148.924 167.352 151.205 167.352 150.918V146.733H152.374C152.374 146.733 148.638 146.607 147.938 143.446Z" fill="#E0E0E0"/>
<path d="M162.36 191.849C162.36 191.849 162.648 191.849 163.222 191.741C164.053 191.582 164.831 191.218 165.485 190.681C166.019 190.241 166.454 189.694 166.763 189.075C167.073 188.457 167.249 187.78 167.281 187.089C167.281 185.473 167.281 183.605 167.281 181.504C167.281 173.134 167.281 161.137 167.281 146.661L147.597 126.618H147.723H123.495C122.855 126.573 122.213 126.573 121.573 126.618C120.955 126.748 120.368 126.999 119.848 127.357C119.327 127.714 118.882 128.171 118.538 128.701C117.995 129.397 117.659 130.231 117.568 131.108C117.568 131.988 117.568 132.904 117.568 133.82V139.208C117.568 142.8 117.568 146.302 117.568 149.768V169.776C117.568 172.955 117.568 176.044 117.568 179.061V185.688C117.504 186.387 117.504 187.091 117.568 187.79C117.765 188.782 118.268 189.688 119.005 190.38C119.743 191.073 120.678 191.517 121.681 191.651C122.333 191.696 122.987 191.696 123.638 191.651H131.182H153.973H160.151H153.973H131.182H123.638C122.974 191.687 122.309 191.687 121.645 191.651C120.949 191.562 120.281 191.323 119.687 190.951C119.071 190.584 118.539 190.093 118.125 189.508C117.71 188.924 117.423 188.259 117.281 187.556C117.209 186.84 117.209 186.118 117.281 185.401V169.776C117.281 163.418 117.281 156.737 117.281 149.822V133.874C117.281 132.958 117.281 132.078 117.281 131.126C117.343 130.174 117.673 129.259 118.232 128.486C119.037 127.38 120.243 126.632 121.591 126.402C122.248 126.34 122.91 126.34 123.567 126.402H147.795L167.461 146.625C167.461 161.101 167.461 173.098 167.461 181.468C167.461 183.569 167.461 185.419 167.461 187.053C167.422 187.743 167.243 188.417 166.934 189.035C166.625 189.653 166.193 190.201 165.665 190.645C164.99 191.178 164.194 191.536 163.348 191.687H162.701L162.36 191.849Z" fill="#E0E0E0"/>
<path d="M167.352 146.733H166.975H165.862H161.803H155.786H152.194C151.533 146.711 150.883 146.554 150.284 146.273C149.685 145.993 149.15 145.593 148.71 145.099C148.268 144.572 147.938 143.961 147.74 143.303C147.555 142.686 147.482 142.041 147.525 141.399V137.807C147.525 135.562 147.525 133.515 147.525 131.79C147.525 130.066 147.525 128.737 147.525 127.731C147.525 127.282 147.525 126.923 147.525 126.636C147.525 126.348 147.525 126.241 147.525 126.241C147.55 126.371 147.55 126.505 147.525 126.636C147.525 126.923 147.525 127.282 147.525 127.731C147.525 128.737 147.525 130.12 147.525 131.79C147.525 133.461 147.525 135.562 147.525 137.807C147.525 138.938 147.525 140.124 147.525 141.399C147.472 142.013 147.543 142.632 147.735 143.218C147.926 143.805 148.233 144.346 148.638 144.811C149.045 145.272 149.542 145.645 150.097 145.907C150.653 146.17 151.257 146.316 151.871 146.338H155.463H161.48H165.539H166.652C167.227 146.697 167.352 146.715 167.352 146.733Z" fill="#E0E0E0"/>
<path d="M146.968 140.393C146.968 140.501 142.244 140.573 136.425 140.573C130.606 140.573 125.883 140.573 125.883 140.393C125.883 140.214 130.588 140.214 136.425 140.214C142.262 140.214 146.968 140.303 146.968 140.393Z" fill="#E0E0E0"/>
<path d="M156.972 148.17C156.972 148.17 150.021 148.35 141.436 148.35C132.851 148.35 125.883 148.35 125.883 148.17C125.883 147.99 132.833 147.99 141.436 147.99C150.039 147.99 156.972 148.062 156.972 148.17Z" fill="#E0E0E0"/>
<path d="M156.972 155.929C156.972 156.036 150.021 156.108 141.436 156.108C132.851 156.108 125.883 156.108 125.883 155.929C125.883 155.749 132.833 155.767 141.436 155.767C150.039 155.767 156.972 155.839 156.972 155.929Z" fill="#E0E0E0"/>
<path d="M156.972 163.705C156.972 163.705 150.021 163.885 141.436 163.885C132.851 163.885 125.883 163.885 125.883 163.705C125.883 163.526 132.833 163.526 141.436 163.526C150.039 163.526 156.972 163.616 156.972 163.705Z" fill="#E0E0E0"/>
<path d="M156.972 171.482C156.972 171.482 150.021 171.644 141.436 171.644C132.851 171.644 125.883 171.644 125.883 171.482C125.883 171.32 132.833 171.302 141.436 171.302C150.039 171.302 156.972 171.374 156.972 171.482Z" fill="#E0E0E0"/>
<path d="M156.972 181.055C156.972 181.162 150.021 181.234 141.436 181.234C132.851 181.234 125.883 181.234 125.883 181.055C125.883 180.875 132.833 180.875 141.436 180.875C150.039 180.875 156.972 180.965 156.972 181.055Z" fill="#E0E0E0"/>
<path d="M167.118 208.426C167.118 208.695 156.019 208.893 142.351 208.893C128.684 208.893 117.566 208.695 117.566 208.426C117.566 208.156 128.666 207.959 142.351 207.959C156.037 207.959 167.118 208.174 167.118 208.426Z" fill="#E0E0E0"/>
<path d="M158.281 214.909C152.985 215.383 147.666 215.539 142.351 215.376C137.03 215.539 131.704 215.383 126.402 214.909C131.705 214.447 137.03 214.291 142.351 214.442C147.666 214.291 152.985 214.447 158.281 214.909Z" fill="#E0E0E0"/>
<path d="M162.357 333.32H122.36C121.034 333.315 119.764 332.785 118.828 331.846C117.893 330.906 117.367 329.635 117.367 328.309V272.992C117.367 271.666 117.893 270.394 118.828 269.455C119.764 268.516 121.034 267.986 122.36 267.981H147.72L167.35 288.222V328.309C167.35 329.635 166.824 330.906 165.889 331.846C164.953 332.785 163.683 333.315 162.357 333.32Z" fill="#EBEBEB"/>
<path d="M147.723 267.963V283.552C147.723 284.786 148.213 285.969 149.085 286.842C149.957 287.714 151.141 288.204 152.374 288.204H167.353L147.723 267.963Z" fill="#F5F5F5"/>
<path d="M147.938 284.917C147.945 286.095 148.356 287.234 149.101 288.145C149.846 289.057 150.88 289.686 152.032 289.928L152.517 290.036C154.475 290.395 167.352 292.676 167.352 292.389V288.204H152.374C152.374 288.204 148.638 288.078 147.938 284.917Z" fill="#E0E0E0"/>
<path d="M162.36 333.32C162.36 333.32 162.648 333.32 163.222 333.212C164.053 333.053 164.831 332.689 165.485 332.152C166.019 331.712 166.454 331.165 166.763 330.546C167.073 329.928 167.249 329.251 167.281 328.56C167.281 326.944 167.281 325.076 167.281 322.975C167.281 314.605 167.281 302.608 167.281 288.132V288.222L147.597 268.089H147.723H123.495C122.855 268.043 122.213 268.043 121.573 268.089C120.955 268.219 120.368 268.47 119.848 268.828C119.327 269.185 118.882 269.642 118.538 270.172C118.018 270.893 117.713 271.746 117.658 272.633C117.658 273.513 117.658 274.429 117.658 275.345V280.733C117.658 284.325 117.658 287.827 117.658 291.293V311.247C117.658 314.426 117.658 317.515 117.658 320.532V327.159C117.594 327.858 117.594 328.562 117.658 329.261C117.855 330.253 118.357 331.159 119.095 331.851C119.832 332.543 120.768 332.988 121.771 333.122C122.422 333.167 123.076 333.167 123.728 333.122H131.271H154.063H160.241H154.063H131.271H123.728C123.064 333.158 122.399 333.158 121.735 333.122C121.039 333.033 120.371 332.794 119.777 332.422C119.161 332.055 118.629 331.564 118.215 330.979C117.8 330.394 117.513 329.73 117.37 329.027C117.298 328.311 117.298 327.589 117.37 326.872V311.247C117.37 304.889 117.37 298.208 117.37 291.293V275.345C117.37 274.429 117.37 273.549 117.37 272.597C117.433 271.645 117.763 270.729 118.322 269.957C119.127 268.851 120.332 268.103 121.681 267.873C122.338 267.811 122.999 267.811 123.656 267.873H147.795L167.407 288.114C167.407 302.59 167.407 314.587 167.407 322.957C167.407 325.058 167.407 326.908 167.407 328.542C167.368 329.232 167.189 329.906 166.88 330.524C166.571 331.142 166.139 331.69 165.611 332.134C164.936 332.667 164.14 333.024 163.294 333.176H162.648L162.36 333.32Z" fill="#E0E0E0"/>
<path d="M167.352 288.204H166.975H165.862H161.803H155.786H152.194C151.533 288.182 150.883 288.025 150.284 287.744C149.685 287.463 149.15 287.064 148.71 286.57C148.268 286.043 147.938 285.432 147.74 284.774C147.555 284.157 147.482 283.512 147.525 282.87V279.278C147.525 277.033 147.525 274.985 147.525 273.261C147.525 271.537 147.525 270.208 147.525 269.202C147.525 268.753 147.525 268.394 147.525 268.107C147.525 267.819 147.525 267.712 147.525 267.712C147.55 267.842 147.55 267.976 147.525 268.107C147.525 268.394 147.525 268.753 147.525 269.202C147.525 270.208 147.525 271.591 147.525 273.261C147.525 274.932 147.525 277.033 147.525 279.278C147.525 280.409 147.525 281.595 147.525 282.87C147.472 283.484 147.543 284.103 147.735 284.689C147.926 285.275 148.233 285.817 148.638 286.282C149.045 286.743 149.542 287.116 150.097 287.378C150.653 287.641 151.257 287.787 151.871 287.809H155.463H161.48H165.539H166.652C167.227 288.168 167.352 288.186 167.352 288.204Z" fill="#E0E0E0"/>
<path d="M146.968 281.864C146.968 281.972 142.244 282.044 136.425 282.044C130.606 282.044 125.883 282.044 125.883 281.864C125.883 281.685 130.588 281.685 136.425 281.685C142.262 281.685 146.968 281.774 146.968 281.864Z" fill="#E0E0E0"/>
<path d="M156.972 289.641C156.972 289.641 150.021 289.82 141.436 289.82C132.851 289.82 125.883 289.731 125.883 289.641C125.883 289.551 132.833 289.461 141.436 289.461C150.039 289.461 156.972 289.533 156.972 289.641Z" fill="#E0E0E0"/>
<path d="M156.972 297.4C156.972 297.507 150.021 297.579 141.436 297.579C132.851 297.579 125.883 297.579 125.883 297.4C125.883 297.22 132.833 297.238 141.436 297.238C150.039 297.238 156.972 297.31 156.972 297.4Z" fill="#E0E0E0"/>
<path d="M156.972 305.176C156.972 305.266 150.021 305.356 141.436 305.356C132.851 305.356 125.883 305.266 125.883 305.176C125.883 305.086 132.833 304.997 141.436 304.997C150.039 304.997 156.972 305.086 156.972 305.176Z" fill="#E0E0E0"/>
<path d="M156.972 312.953C156.972 313.043 150.021 313.115 141.436 313.115C132.851 313.115 125.883 313.115 125.883 312.953C125.883 312.791 132.833 312.773 141.436 312.773C150.039 312.773 156.972 312.845 156.972 312.953Z" fill="#E0E0E0"/>
<path d="M156.972 322.526C156.972 322.633 150.021 322.705 141.436 322.705C132.851 322.705 125.883 322.705 125.883 322.526C125.883 322.346 132.833 322.346 141.436 322.346C150.039 322.346 156.972 322.436 156.972 322.526Z" fill="#E0E0E0"/>
<path d="M167.118 349.897C167.118 350.166 156.019 350.364 142.351 350.364C128.684 350.364 117.566 350.166 117.566 349.897C117.566 349.627 128.666 349.43 142.351 349.43C156.037 349.43 167.118 349.645 167.118 349.897Z" fill="#E0E0E0"/>
<path d="M158.281 356.38C152.985 356.854 147.666 357.01 142.351 356.847C137.03 357.01 131.704 356.854 126.402 356.38C131.705 355.918 137.03 355.762 142.351 355.913C147.666 355.762 152.985 355.918 158.281 356.38Z" fill="#E0E0E0"/>
<path d="M159.611 506.867H119.614C118.288 506.862 117.018 506.332 116.082 505.393C115.147 504.454 114.621 503.182 114.621 501.856V446.521C114.621 445.196 115.147 443.924 116.082 442.985C117.018 442.045 118.288 441.515 119.614 441.511H144.973L164.604 461.752V501.856C164.604 503.182 164.078 504.454 163.142 505.393C162.207 506.332 160.937 506.862 159.611 506.867Z" fill="#EBEBEB"/>
<path d="M144.973 441.511V457.082C144.973 458.316 145.463 459.499 146.335 460.371C147.207 461.244 148.391 461.734 149.624 461.734H164.603L144.973 441.511Z" fill="#F5F5F5"/>
<path d="M145.188 458.447C145.194 459.626 145.604 460.768 146.349 461.683C147.094 462.597 148.129 463.23 149.282 463.476C149.448 463.522 149.616 463.558 149.785 463.583C151.725 463.943 164.602 466.224 164.602 465.936V461.752H149.624C149.624 461.752 145.888 461.572 145.188 458.447Z" fill="#E0E0E0"/>
<path d="M159.609 506.867C159.609 506.867 159.896 506.867 160.471 506.759C161.302 506.601 162.08 506.236 162.734 505.7C163.267 505.259 163.703 504.712 164.012 504.094C164.321 503.475 164.498 502.799 164.53 502.108C164.53 500.491 164.53 498.606 164.53 496.522C164.53 488.153 164.53 476.156 164.53 461.68L144.846 441.636H144.971H120.743C120.104 441.582 119.461 441.582 118.822 441.636C118.197 441.74 117.6 441.967 117.063 442.303C116.527 442.639 116.063 443.078 115.697 443.594C115.177 444.315 114.872 445.168 114.817 446.055C114.817 446.935 114.817 447.851 114.817 448.767V454.155C114.817 457.747 114.817 461.249 114.817 464.715V484.669C114.817 487.847 114.817 490.937 114.817 493.954V500.581C114.793 501.35 114.835 502.119 114.942 502.88C115.139 503.872 115.642 504.778 116.379 505.47C117.117 506.163 118.053 506.607 119.055 506.741C119.707 506.778 120.361 506.778 121.013 506.741H128.574H151.347H157.526H151.257H128.484H120.923C120.259 506.786 119.593 506.786 118.929 506.741C117.897 506.613 116.928 506.176 116.149 505.487C115.37 504.798 114.818 503.889 114.565 502.88C114.494 502.163 114.494 501.441 114.565 500.725C114.565 500.006 114.565 499.27 114.565 498.552V484.812C114.565 478.454 114.565 471.773 114.565 464.859V448.91C114.565 447.994 114.565 447.114 114.565 446.162C114.647 445.005 115.117 443.909 115.899 443.051C116.682 442.194 117.73 441.626 118.876 441.439C119.531 441.356 120.191 441.326 120.851 441.349H145.043L164.71 461.572C164.71 476.048 164.71 488.045 164.71 496.414C164.71 498.516 164.71 500.366 164.71 502C164.671 502.69 164.492 503.364 164.183 503.982C163.874 504.599 163.442 505.147 162.914 505.592C162.245 506.131 161.446 506.484 160.597 506.616C160.382 506.635 160.165 506.635 159.95 506.616L159.609 506.867Z" fill="#E0E0E0"/>
<path d="M164.605 461.752H164.228H163.115H159.056H153.039H149.447C148.788 461.731 148.14 461.575 147.544 461.294C146.948 461.013 146.416 460.613 145.981 460.117C145.53 459.594 145.194 458.982 144.993 458.321C144.808 457.705 144.735 457.06 144.777 456.418V452.826C144.777 450.563 144.777 448.533 144.777 446.809C144.777 445.085 144.777 443.756 144.777 442.75C144.777 442.301 144.777 441.942 144.777 441.654C144.777 441.367 144.777 441.259 144.777 441.259C144.803 441.39 144.803 441.524 144.777 441.654V442.75C144.777 443.756 144.777 445.139 144.777 446.809C144.777 448.479 144.777 450.563 144.777 452.826C144.777 453.957 144.777 455.142 144.777 456.418C144.727 457.032 144.799 457.65 144.99 458.236C145.182 458.822 145.488 459.364 145.891 459.83C146.296 460.291 146.793 460.664 147.349 460.924C147.905 461.183 148.51 461.325 149.124 461.339H152.716H158.732H162.791H163.905C164.48 461.716 164.605 461.734 164.605 461.752Z" fill="#E0E0E0"/>
<path d="M144.218 455.412C144.218 455.501 139.494 455.591 133.675 455.591C127.856 455.591 123.133 455.591 123.133 455.412C123.133 455.232 127.856 455.232 133.675 455.232C139.494 455.232 144.218 455.322 144.218 455.412Z" fill="#E0E0E0"/>
<path d="M154.222 463.188C154.222 463.278 147.271 463.35 138.686 463.35C130.101 463.35 123.133 463.35 123.133 463.188C123.133 463.027 130.083 463.009 138.686 463.009C147.289 463.009 154.222 463.081 154.222 463.188Z" fill="#E0E0E0"/>
<path d="M154.222 470.947C154.222 471.055 147.271 471.127 138.686 471.127C130.101 471.127 123.133 471.127 123.133 470.947C123.133 470.768 130.083 470.768 138.686 470.768C147.289 470.768 154.222 470.857 154.222 470.947Z" fill="#E0E0E0"/>
<path d="M154.222 478.724C154.222 478.814 147.271 478.903 138.686 478.903C130.101 478.903 123.133 478.903 123.133 478.724C123.133 478.544 130.083 478.544 138.686 478.544C147.289 478.544 154.222 478.616 154.222 478.724Z" fill="#E0E0E0"/>
<path d="M154.222 486.482C154.222 486.59 147.271 486.662 138.686 486.662C130.101 486.662 123.133 486.662 123.133 486.482C123.133 486.303 130.083 486.321 138.686 486.321C147.289 486.321 154.222 486.393 154.222 486.482Z" fill="#E0E0E0"/>
<path d="M154.222 496.073C154.222 496.163 147.271 496.253 138.686 496.253C130.101 496.253 123.133 496.163 123.133 496.073C123.133 495.983 130.083 495.894 138.686 495.894C147.289 495.894 154.222 495.983 154.222 496.073Z" fill="#E0E0E0"/>
<path d="M164.37 523.444C164.37 523.696 153.27 523.911 139.603 523.911C125.935 523.911 114.836 523.696 114.836 523.444C114.836 523.193 125.917 522.977 139.603 522.977C153.288 522.977 164.37 523.193 164.37 523.444Z" fill="#E0E0E0"/>
<path d="M155.553 529.928C150.25 530.39 144.925 530.546 139.605 530.395C134.284 530.546 128.959 530.39 123.656 529.928C128.959 529.465 134.284 529.309 139.605 529.461C144.925 529.31 150.25 529.466 155.553 529.928Z" fill="#E0E0E0"/>
<path d="M422.562 502.88H382.548C381.891 502.882 381.241 502.755 380.634 502.505C380.027 502.255 379.476 501.887 379.012 501.423C378.548 500.959 378.18 500.407 377.93 499.801C377.68 499.194 377.552 498.543 377.555 497.887V442.57C377.552 441.913 377.68 441.262 377.93 440.654C378.179 440.046 378.547 439.494 379.011 439.028C379.475 438.563 380.026 438.193 380.633 437.941C381.24 437.689 381.89 437.559 382.548 437.559H407.907L427.537 457.782V497.905C427.533 499.223 427.007 500.486 426.075 501.418C425.143 502.35 423.88 502.875 422.562 502.88Z" fill="#EBEBEB"/>
<path d="M407.945 437.559V453.131C407.945 454.364 408.435 455.548 409.308 456.42C410.18 457.292 411.363 457.782 412.597 457.782H427.576L407.945 437.559Z" fill="#F5F5F5"/>
<path d="M408.141 454.496C408.148 455.678 408.561 456.821 409.309 457.736C410.057 458.651 411.097 459.282 412.253 459.525L412.738 459.632C414.696 459.974 427.573 462.272 427.573 461.967V457.782H412.595C412.595 457.782 408.859 457.657 408.141 454.496Z" fill="#E0E0E0"/>
<path d="M422.564 502.88C422.853 502.871 423.141 502.841 423.426 502.79C424.264 502.636 425.049 502.271 425.707 501.731C426.241 501.291 426.677 500.744 426.986 500.125C427.296 499.507 427.472 498.83 427.503 498.139C427.503 496.54 427.503 494.654 427.503 492.571C427.503 484.184 427.503 472.204 427.503 457.711V457.818L407.819 437.685H407.944H383.716C383.077 437.631 382.434 437.631 381.795 437.685C381.17 437.789 380.573 438.016 380.036 438.352C379.5 438.688 379.035 439.126 378.67 439.643C378.147 440.357 377.836 441.203 377.772 442.085C377.772 442.983 377.772 443.881 377.772 444.815V480.735C377.772 483.914 377.772 487.003 377.772 490.021V496.648C377.738 497.35 377.768 498.053 377.861 498.749C378.058 499.741 378.561 500.647 379.298 501.339C380.036 502.032 380.972 502.476 381.974 502.611C382.603 502.611 383.285 502.611 383.932 502.611H391.529H414.302H420.498H414.302H391.529H383.986C383.322 502.646 382.656 502.646 381.992 502.611C381.3 502.52 380.633 502.287 380.035 501.928C379.42 501.56 378.889 501.068 378.475 500.484C378.061 499.899 377.772 499.235 377.628 498.534C377.53 497.82 377.494 497.099 377.52 496.378V480.466C377.52 474.108 377.52 467.427 377.52 460.512V444.564C377.52 443.648 377.52 442.768 377.52 441.816C377.582 440.864 377.912 439.949 378.472 439.176C379.27 438.059 380.477 437.303 381.831 437.075C382.488 437.03 383.148 437.03 383.806 437.075H408.106L427.718 457.333C427.718 471.827 427.718 483.806 427.718 492.194C427.718 494.295 427.718 496.145 427.718 497.779C427.678 498.468 427.497 499.142 427.189 499.76C426.88 500.377 426.449 500.925 425.922 501.371C425.25 501.905 424.452 502.257 423.605 502.395C423.391 502.426 423.173 502.426 422.959 502.395L422.564 502.88Z" fill="#E0E0E0"/>
<path d="M427.576 457.782C427.576 457.782 427.45 457.782 427.198 457.782H426.085L422.062 457.98H416.045H412.453C411.45 457.956 410.48 457.617 409.681 457.011C408.881 456.405 408.293 455.563 407.999 454.603C407.818 453.986 407.739 453.343 407.766 452.7C407.766 451.46 407.766 450.275 407.766 449.108C407.766 446.845 407.766 444.815 407.766 443.091C407.766 441.367 407.766 440.038 407.766 439.032C407.766 438.583 407.766 438.224 407.766 437.919C407.75 437.793 407.75 437.667 407.766 437.542C407.781 437.667 407.781 437.793 407.766 437.919V439.032C407.766 440.038 407.766 441.403 407.766 443.091C407.766 444.779 407.766 446.845 407.766 449.108C407.766 450.239 407.766 451.425 407.766 452.7C407.715 453.314 407.787 453.932 407.979 454.518C408.17 455.104 408.476 455.646 408.879 456.112C409.284 456.574 409.781 456.946 410.337 457.206C410.894 457.465 411.498 457.607 412.112 457.621H415.704H421.721H425.78H426.893L427.576 457.782Z" fill="#E0E0E0"/>
<path d="M407.189 451.46C407.189 451.46 402.465 451.64 396.646 451.64C390.827 451.64 386.086 451.55 386.086 451.46C386.086 451.371 390.809 451.281 396.646 451.281C402.483 451.281 407.189 451.353 407.189 451.46Z" fill="#E0E0E0"/>
<path d="M417.193 459.219C417.193 459.327 410.242 459.399 401.639 459.399C393.036 459.399 386.086 459.399 386.086 459.219C386.086 459.04 393.054 459.058 401.639 459.058C410.224 459.058 417.193 459.129 417.193 459.219Z" fill="#E0E0E0"/>
<path d="M417.193 466.96C417.193 467.068 410.242 467.14 401.639 467.14C393.036 467.14 386.086 467.14 386.086 466.96C386.086 466.78 393.054 466.78 401.639 466.78C410.224 466.78 417.193 466.96 417.193 466.96Z" fill="#E0E0E0"/>
<path d="M417.193 474.773C417.193 474.773 410.242 474.934 401.639 474.934C393.036 474.934 386.086 474.934 386.086 474.773C386.086 474.611 393.054 474.593 401.639 474.593C410.224 474.593 417.193 474.665 417.193 474.773Z" fill="#E0E0E0"/>
<path d="M417.193 482.531C417.193 482.639 410.242 482.711 401.639 482.711C393.036 482.711 386.086 482.711 386.086 482.531C386.086 482.352 393.054 482.352 401.639 482.352C410.224 482.352 417.193 482.441 417.193 482.531Z" fill="#E0E0E0"/>
<path d="M417.193 492.104C417.193 492.194 410.242 492.284 401.639 492.284C393.036 492.284 386.086 492.194 386.086 492.104C386.086 492.014 393.054 491.924 401.639 491.924C410.224 491.924 417.193 492.104 417.193 492.104Z" fill="#E0E0E0"/>
<path d="M427.341 519.493C427.341 519.744 416.241 519.96 402.556 519.96C388.87 519.96 377.789 519.744 377.789 519.493C377.789 519.242 388.888 519.026 402.556 519.026C416.223 519.026 427.341 519.224 427.341 519.493Z" fill="#E0E0E0"/>
<path d="M418.469 525.977C413.166 526.439 407.841 526.595 402.52 526.443C397.206 526.595 391.887 526.439 386.59 525.977C391.887 525.514 397.206 525.358 402.52 525.51C407.841 525.358 413.166 525.514 418.469 525.977Z" fill="#E0E0E0"/>
<path d="M264.014 102.067L265.81 137.843C265.813 138.41 266.029 138.956 266.415 139.371C266.8 139.787 267.328 140.043 267.894 140.088H323.067C323.645 140.024 324.176 139.741 324.551 139.296C324.925 138.851 325.114 138.28 325.078 137.699V109.843C325.123 109.246 324.929 108.655 324.538 108.2C324.148 107.746 323.593 107.465 322.995 107.419L289.158 107.76C288.877 107.756 288.6 107.691 288.346 107.57C288.092 107.449 287.866 107.275 287.686 107.059L281.795 100.271C281.616 100.059 281.393 99.8878 281.142 99.77C280.891 99.6522 280.617 99.5902 280.34 99.5881H265.972C265.389 99.6688 264.86 99.9718 264.495 100.434C264.13 100.896 263.958 101.481 264.014 102.067Z" fill="#EBEBEB"/>
<path d="M325.132 103.198H264.84V145.242H325.132V103.198Z" fill="#F5F5F5"/>
<path d="M260.044 106.97L264.642 150.864C264.662 151.213 264.808 151.544 265.052 151.794C265.296 152.045 265.622 152.199 265.971 152.229H324.736C325.098 152.202 325.436 152.038 325.683 151.772C325.93 151.505 326.066 151.155 326.065 150.792L329.028 106.934C329.053 106.736 329.039 106.536 328.985 106.345C328.931 106.153 328.84 105.974 328.716 105.819C328.592 105.663 328.438 105.534 328.264 105.438C328.089 105.343 327.897 105.284 327.699 105.264H261.373C261.172 105.283 260.976 105.344 260.799 105.441C260.622 105.539 260.466 105.671 260.342 105.831C260.218 105.991 260.127 106.174 260.076 106.37C260.025 106.566 260.014 106.77 260.044 106.97Z" fill="#EBEBEB"/>
<path d="M319.292 174.445C319.292 174.715 308.21 174.912 294.525 174.912C280.839 174.912 269.758 174.715 269.758 174.445C269.758 174.176 280.839 173.979 294.525 173.979C308.21 173.979 319.292 174.212 319.292 174.445Z" fill="#E0E0E0"/>
<path d="M310.473 180.929C305.177 181.402 299.857 181.558 294.542 181.396C289.222 181.558 283.896 181.402 278.594 180.929C283.897 180.467 289.222 180.311 294.542 180.462C299.857 180.311 305.176 180.467 310.473 180.929Z" fill="#E0E0E0"/>
<path d="M265.809 270.262L267.695 306.038C267.689 306.61 267.901 307.162 268.288 307.583C268.676 308.003 269.208 308.26 269.779 308.301H325.077C325.67 308.255 326.22 307.976 326.608 307.525C326.995 307.074 327.187 306.488 327.143 305.895V278.021C327.165 277.726 327.128 277.429 327.035 277.149C326.942 276.868 326.795 276.608 326.601 276.384C326.408 276.161 326.172 275.978 325.907 275.845C325.643 275.713 325.354 275.635 325.059 275.614L291.133 275.866C290.852 275.862 290.574 275.797 290.32 275.676C290.066 275.555 289.841 275.381 289.66 275.165L283.769 268.394C283.591 268.18 283.369 268.006 283.118 267.885C282.867 267.764 282.593 267.699 282.315 267.694H267.947C267.634 267.713 267.33 267.797 267.051 267.938C266.772 268.08 266.525 268.277 266.325 268.518C266.125 268.758 265.976 269.037 265.887 269.337C265.799 269.637 265.772 269.951 265.809 270.262Z" fill="#EBEBEB"/>
<path d="M327.069 271.375H266.777V313.42H327.069V271.375Z" fill="#F5F5F5"/>
<path d="M261.983 275.165L266.599 319.005C266.607 319.356 266.747 319.69 266.989 319.943C267.232 320.195 267.561 320.348 267.91 320.37H326.675C327.036 320.348 327.374 320.188 327.621 319.924C327.868 319.661 328.005 319.313 328.004 318.952L330.968 275.093C330.993 274.896 330.978 274.696 330.924 274.504C330.871 274.312 330.779 274.134 330.655 273.978C330.532 273.822 330.378 273.693 330.203 273.598C330.029 273.502 329.837 273.443 329.639 273.423H263.312C263.108 273.442 262.909 273.504 262.729 273.603C262.549 273.703 262.391 273.839 262.266 274.003C262.142 274.167 262.052 274.354 262.003 274.554C261.955 274.754 261.948 274.962 261.983 275.165Z" fill="#EBEBEB"/>
<path d="M321.233 342.641C321.233 342.892 310.152 343.108 296.466 343.108C282.781 343.108 271.699 342.892 271.699 342.641C271.699 342.389 282.781 342.174 296.466 342.174C310.152 342.174 321.233 342.371 321.233 342.641Z" fill="#E0E0E0"/>
<path d="M312.506 349.124C307.204 349.587 301.879 349.743 296.558 349.591C291.237 349.742 285.912 349.587 280.609 349.124C285.912 348.651 291.237 348.495 296.558 348.657C301.879 348.495 307.204 348.651 312.506 349.124Z" fill="#E0E0E0"/>
<path d="M236.694 477.628L238.597 513.404C238.587 513.974 238.795 514.527 239.179 514.948C239.563 515.369 240.094 515.626 240.663 515.667H295.836C296.43 515.621 296.982 515.343 297.372 514.892C297.762 514.442 297.959 513.855 297.919 513.261V485.387C297.941 485.092 297.905 484.796 297.812 484.515C297.719 484.234 297.571 483.974 297.378 483.751C297.184 483.527 296.948 483.344 296.684 483.212C296.419 483.079 296.131 483.001 295.836 482.98L261.891 483.232C261.61 483.228 261.333 483.163 261.079 483.042C260.825 482.921 260.599 482.747 260.419 482.531L254.528 475.76C254.35 475.546 254.128 475.372 253.877 475.252C253.626 475.131 253.352 475.065 253.073 475.06H238.705C238.404 475.095 238.113 475.19 237.848 475.339C237.584 475.487 237.352 475.687 237.165 475.925C236.978 476.164 236.84 476.437 236.759 476.73C236.678 477.022 236.656 477.327 236.694 477.628Z" fill="#EBEBEB"/>
<path d="M297.901 478.742H237.609V520.786H297.901V478.742Z" fill="#F5F5F5"/>
<path d="M232.815 482.513L237.431 526.372C237.439 526.722 237.579 527.056 237.821 527.309C238.064 527.562 238.393 527.714 238.742 527.737H297.507C297.869 527.709 298.208 527.546 298.454 527.28C298.701 527.013 298.837 526.663 298.836 526.3L301.728 482.459C301.756 482.261 301.743 482.059 301.69 481.865C301.638 481.671 301.547 481.49 301.423 481.333C301.299 481.175 301.144 481.044 300.968 480.947C300.792 480.851 300.599 480.791 300.399 480.771H234.144C233.94 480.79 233.741 480.852 233.561 480.952C233.381 481.052 233.223 481.188 233.098 481.351C232.974 481.515 232.884 481.703 232.835 481.903C232.787 482.103 232.78 482.311 232.815 482.513Z" fill="#EBEBEB"/>
<path d="M292.065 550.007C292.065 550.258 280.984 550.474 267.298 550.474C253.613 550.474 242.531 550.258 242.531 550.007C242.531 549.756 253.631 549.54 267.298 549.54C280.966 549.54 292.065 549.738 292.065 550.007Z" fill="#E0E0E0"/>
<path d="M283.249 556.491C277.946 556.953 272.621 557.109 267.3 556.958C261.979 557.109 256.654 556.953 251.352 556.491C256.654 556.018 261.979 555.862 267.3 556.024C272.621 555.861 277.946 556.017 283.249 556.491Z" fill="#E0E0E0"/>
<path d="M837.708 92.2065H438.637V443.163H837.708V92.2065Z" fill="#FFFBFB"/>
<path d="M837.707 443.163C837.707 439.84 837.545 303.38 837.312 92.2066L837.707 92.6018H438.672L439.139 92.1348C439.139 219.651 439.139 339.785 439.139 443.091L438.726 442.678L837.797 443.091L438.726 443.504H438.223V443.091C438.223 339.785 438.223 219.687 438.223 92.1348V91.6678H438.726H837.761H838.156V92.063C837.869 303.38 837.707 439.84 837.707 443.163Z" fill="#E0E0E0"/>
<path d="M838.856 128.216C838.856 128.378 750.26 128.522 640.991 128.522C531.722 128.522 443.09 128.378 443.09 128.216C443.09 128.055 531.687 127.893 640.991 127.893C750.296 127.893 838.856 128.037 838.856 128.216Z" fill="#E0E0E0"/>
<path d="M465.791 111.783C465.805 112.596 465.577 113.395 465.136 114.077C464.695 114.76 464.06 115.296 463.313 115.617C462.566 115.938 461.741 116.029 460.942 115.88C460.143 115.73 459.407 115.346 458.827 114.776C458.247 114.206 457.85 113.477 457.686 112.681C457.522 111.884 457.599 111.057 457.906 110.305C458.214 109.552 458.739 108.909 459.414 108.455C460.088 108.002 460.883 107.76 461.696 107.76C462.77 107.76 463.8 108.181 464.566 108.934C465.332 109.686 465.772 110.71 465.791 111.783Z" fill="#EBEBEB"/>
<path d="M479.244 111.783C479.258 112.596 479.03 113.395 478.589 114.077C478.148 114.76 477.513 115.296 476.766 115.617C476.02 115.938 475.194 116.029 474.395 115.88C473.596 115.73 472.86 115.346 472.28 114.776C471.7 114.206 471.303 113.477 471.139 112.681C470.975 111.884 471.052 111.057 471.359 110.305C471.667 109.552 472.192 108.909 472.867 108.455C473.542 108.002 474.336 107.76 475.149 107.76C476.223 107.76 477.253 108.181 478.019 108.934C478.785 109.686 479.225 110.71 479.244 111.783Z" fill="#EBEBEB"/>
<path d="M492.697 111.783C492.711 112.596 492.483 113.395 492.042 114.077C491.601 114.76 490.966 115.296 490.22 115.617C489.473 115.938 488.647 116.029 487.848 115.88C487.049 115.73 486.313 115.346 485.733 114.776C485.153 114.206 484.756 113.477 484.592 112.681C484.428 111.884 484.505 111.057 484.813 110.305C485.12 109.552 485.645 108.909 486.32 108.455C486.995 108.002 487.789 107.76 488.602 107.76C489.676 107.76 490.707 108.181 491.473 108.934C492.238 109.686 492.678 110.71 492.697 111.783Z" fill="#EBEBEB"/>
<path d="M819.136 159.179C819.36 159.154 819.582 159.112 819.8 159.054C820.114 158.949 820.402 158.778 820.644 158.551C820.886 158.325 821.076 158.049 821.201 157.743C821.359 157.281 821.414 156.791 821.363 156.306C821.363 155.749 821.363 155.156 821.363 154.51C821.363 153.217 821.363 151.708 821.363 150.038C821.363 148.368 821.363 146.446 821.363 144.416C821.363 143.895 821.363 143.357 821.363 142.854C821.315 142.334 821.078 141.85 820.698 141.493C820.317 141.135 819.819 140.929 819.297 140.914H817.501H801.212H706.85C706.352 140.908 705.871 141.089 705.501 141.422C705.132 141.755 704.901 142.215 704.856 142.71V156.234C704.793 156.739 704.881 157.251 705.108 157.707C705.35 158.124 705.732 158.442 706.185 158.605C706.418 158.677 706.66 158.713 706.904 158.712H737.705H780.127L808.719 158.82H816.496H818.525H819.208C818.98 158.836 818.752 158.836 818.525 158.82H816.496H808.719L780.127 158.928H737.705H712.651H706.904C706.593 158.926 706.284 158.877 705.988 158.784C705.391 158.568 704.888 158.148 704.569 157.599C704.283 157.046 704.164 156.422 704.228 155.803V142.818C704.286 142.162 704.587 141.552 705.072 141.106C705.557 140.661 706.191 140.413 706.85 140.411H801.212H817.501H819.297C819.9 140.427 820.475 140.665 820.913 141.079C821.35 141.494 821.619 142.055 821.668 142.656C821.668 143.231 821.668 143.734 821.668 144.255C821.668 146.302 821.668 148.17 821.668 149.876C821.668 151.582 821.668 153.055 821.668 154.348C821.668 155.013 821.668 155.605 821.668 156.144C821.708 156.649 821.641 157.157 821.47 157.635C821.335 157.95 821.13 158.231 820.873 158.458C820.615 158.685 820.31 158.852 819.98 158.946C819.725 159.1 819.433 159.181 819.136 159.179Z" fill="#E0E0E0"/>
<path d="M711.754 152.319L712.059 151.672C712.608 152.115 713.294 152.35 713.999 152.337C715.023 152.337 715.454 151.942 715.454 151.439C715.454 150.002 711.862 150.9 711.862 148.727C711.862 147.811 712.562 147.039 714.107 147.039C714.771 147.034 715.424 147.215 715.993 147.559L715.723 148.242C715.243 147.927 714.681 147.758 714.107 147.757C713.101 147.757 712.67 148.17 712.67 148.691C712.67 150.128 716.262 149.23 716.262 151.385C716.262 152.283 715.544 153.055 713.981 153.055C713.177 153.066 712.393 152.806 711.754 152.319Z" fill="#E0E0E0"/>
<path d="M721.4 151.026H717.809C717.854 151.412 718.048 151.765 718.35 152.01C718.652 152.255 719.038 152.372 719.425 152.337C719.664 152.346 719.902 152.302 720.122 152.209C720.343 152.116 720.54 151.976 720.7 151.798L721.149 152.319C720.921 152.564 720.642 152.755 720.332 152.879C720.021 153.004 719.687 153.058 719.353 153.037C719.053 153.057 718.753 153.015 718.469 152.915C718.186 152.816 717.925 152.659 717.704 152.456C717.482 152.253 717.304 152.008 717.18 151.734C717.056 151.46 716.989 151.164 716.982 150.864C716.97 150.566 717.019 150.268 717.126 149.989C717.233 149.711 717.395 149.457 717.604 149.243C717.812 149.03 718.062 148.861 718.338 148.747C718.615 148.634 718.911 148.578 719.209 148.583C719.508 148.575 719.805 148.629 720.081 148.742C720.357 148.855 720.607 149.024 720.815 149.238C721.023 149.453 721.184 149.708 721.288 149.988C721.391 150.268 721.436 150.566 721.418 150.864C721.418 150.864 721.4 150.954 721.4 151.026ZM717.809 150.451H720.664C720.632 150.095 720.466 149.765 720.199 149.528C719.932 149.291 719.584 149.165 719.227 149.176C718.868 149.156 718.516 149.279 718.247 149.518C717.978 149.757 717.814 150.092 717.791 150.451H717.809Z" fill="#E0E0E0"/>
<path d="M725.942 150.307V153.001H725.17V152.409C724.998 152.626 724.775 152.797 724.521 152.906C724.268 153.016 723.99 153.061 723.715 153.037C722.691 153.037 722.062 152.498 722.062 151.726C722.062 150.954 722.529 150.433 723.859 150.433H725.134V150.271C725.134 149.589 724.739 149.194 723.93 149.194C723.421 149.186 722.925 149.358 722.529 149.679L722.188 149.068C722.707 148.684 723.339 148.482 723.984 148.493C725.241 148.493 725.942 149.068 725.942 150.307ZM725.134 151.636V151.008H723.876C723.086 151.008 722.853 151.313 722.853 151.69C722.853 152.067 723.23 152.427 723.841 152.427C724.111 152.442 724.38 152.375 724.611 152.234C724.842 152.093 725.024 151.884 725.134 151.636Z" fill="#E0E0E0"/>
<path d="M729.821 148.493V149.284H729.642C729.445 149.271 729.248 149.302 729.065 149.375C728.882 149.448 728.718 149.561 728.584 149.706C728.449 149.85 728.349 150.022 728.29 150.21C728.231 150.398 728.214 150.597 728.241 150.792V153.019H727.379V148.529H728.151V149.284C728.332 149.013 728.583 148.796 728.877 148.657C729.171 148.518 729.498 148.461 729.821 148.493Z" fill="#E0E0E0"/>
<path d="M730.363 150.864C730.344 150.545 730.394 150.225 730.509 149.926C730.624 149.628 730.801 149.357 731.029 149.133C731.257 148.908 731.53 148.735 731.83 148.625C732.131 148.514 732.451 148.47 732.77 148.493C733.128 148.472 733.484 148.55 733.801 148.718C734.118 148.886 734.382 149.137 734.566 149.445L733.955 149.84C733.827 149.639 733.648 149.473 733.438 149.36C733.227 149.247 732.991 149.19 732.752 149.194C732.364 149.235 732.005 149.419 731.745 149.709C731.484 149.999 731.34 150.375 731.34 150.765C731.34 151.155 731.484 151.531 731.745 151.822C732.005 152.112 732.364 152.295 732.752 152.337C732.992 152.344 733.229 152.288 733.44 152.175C733.651 152.061 733.829 151.894 733.955 151.69L734.566 152.085C734.382 152.393 734.118 152.645 733.801 152.812C733.484 152.98 733.128 153.058 732.77 153.037C732.467 153.062 732.163 153.024 731.875 152.927C731.587 152.829 731.323 152.674 731.097 152.47C730.872 152.267 730.69 152.019 730.564 151.743C730.438 151.467 730.37 151.168 730.363 150.864Z" fill="#E0E0E0"/>
<path d="M739.754 150.433V153.001H738.946V150.523C738.946 149.643 738.497 149.212 737.743 149.212C737.546 149.197 737.349 149.226 737.165 149.297C736.981 149.367 736.816 149.478 736.68 149.621C736.544 149.763 736.442 149.934 736.38 150.121C736.319 150.308 736.299 150.507 736.324 150.702V153.001H735.516V146.751H736.36V149.176C736.554 148.949 736.797 148.77 737.071 148.651C737.345 148.533 737.642 148.479 737.94 148.493C738.19 148.49 738.438 148.539 738.668 148.637C738.898 148.735 739.105 148.88 739.276 149.062C739.446 149.245 739.577 149.461 739.66 149.697C739.742 149.933 739.774 150.184 739.754 150.433Z" fill="#E0E0E0"/>
<path d="M740.867 152.462C740.865 152.386 740.878 152.31 740.906 152.24C740.934 152.169 740.976 152.104 741.03 152.051C741.084 151.997 741.148 151.954 741.219 151.926C741.29 151.898 741.366 151.885 741.442 151.888C741.595 151.888 741.741 151.948 741.849 152.056C741.956 152.164 742.017 152.31 742.017 152.462C742.017 152.615 741.956 152.761 741.849 152.869C741.741 152.977 741.595 153.037 741.442 153.037C741.366 153.04 741.29 153.027 741.219 152.999C741.148 152.971 741.084 152.928 741.03 152.874C740.976 152.821 740.934 152.756 740.906 152.685C740.878 152.614 740.865 152.539 740.867 152.462Z" fill="#E0E0E0"/>
<path d="M742.773 152.462C742.773 152.31 742.834 152.164 742.942 152.056C743.05 151.948 743.196 151.888 743.348 151.888C743.501 151.888 743.647 151.948 743.755 152.056C743.862 152.164 743.923 152.31 743.923 152.462C743.923 152.615 743.862 152.761 743.755 152.869C743.647 152.977 743.501 153.037 743.348 153.037C743.196 153.037 743.05 152.977 742.942 152.869C742.834 152.761 742.773 152.615 742.773 152.462Z" fill="#E0E0E0"/>
<path d="M744.676 152.462C744.676 152.31 744.736 152.164 744.844 152.056C744.952 151.948 745.098 151.888 745.251 151.888C745.403 151.888 745.549 151.948 745.657 152.056C745.765 152.164 745.825 152.31 745.825 152.462C745.825 152.615 745.765 152.761 745.657 152.869C745.549 152.977 745.403 153.037 745.251 153.037C745.098 153.037 744.952 152.977 744.844 152.869C744.736 152.761 744.676 152.615 744.676 152.462Z" fill="#E0E0E0"/>
<path d="M685.855 189.137V251.997H762.365V189.137C762.365 187.708 761.797 186.337 760.787 185.327C759.776 184.316 758.406 183.749 756.977 183.749H691.297C690.585 183.742 689.879 183.876 689.219 184.143C688.559 184.411 687.959 184.807 687.453 185.308C686.947 185.809 686.545 186.405 686.271 187.062C685.997 187.72 685.855 188.425 685.855 189.137Z" fill="#E0E0E0"/>
<path d="M689.449 217.891L689.97 194.776H756.907V207.959" fill="#F5F5F5"/>
<path d="M752.812 188.526H694.316V194.776H752.812V188.526Z" fill="#F5F5F5"/>
<path d="M694.315 188.58H695.446H698.769L711.125 188.472L752.81 188.346H753.116V188.58C753.116 190.573 753.116 192.693 753.116 194.83C752.487 195.459 752.918 195.01 752.775 195.153H734.15H717.645L694.297 195.028H694.171V194.902C694.171 192.89 694.171 191.31 694.171 190.214C694.171 189.729 694.171 189.334 694.171 189.047C694.163 188.915 694.163 188.783 694.171 188.652C694.184 188.795 694.184 188.939 694.171 189.083C694.171 189.388 694.171 189.801 694.171 190.304C694.171 191.382 694.171 192.926 694.171 194.902L694.027 194.776L717.375 194.65H733.881H752.523C752.397 194.776 752.864 194.327 752.236 194.956V188.58L752.541 188.903L711.089 188.76H698.643H695.267H694.369L694.315 188.58Z" fill="#E0E0E0"/>
<path d="M759.709 267.819C759.709 267.999 745.089 268.143 727.057 268.143C709.026 268.143 694.406 267.999 694.406 267.819C694.406 267.64 709.026 267.514 727.057 267.514C745.089 267.514 759.709 267.604 759.709 267.819Z" fill="#E0E0E0"/>
<path d="M679.983 206.54L685.856 252.087H762.366V207.959H727.631L720.878 202.032H683.935C683.367 202.032 682.806 202.154 682.29 202.388C681.773 202.622 681.312 202.964 680.938 203.391C680.564 203.818 680.285 204.319 680.121 204.862C679.956 205.405 679.909 205.977 679.983 206.54Z" fill="#EBEBEB"/>
<path d="M741.319 225.793C741.319 225.973 732.932 226.116 722.605 226.116C712.278 226.116 703.891 225.973 703.891 225.793C703.891 225.614 712.278 225.488 722.605 225.488C732.932 225.488 741.319 225.631 741.319 225.793Z" fill="#E0E0E0"/>
<path d="M741.319 230.283C741.319 230.463 732.932 230.588 722.605 230.588C712.278 230.588 703.891 230.463 703.891 230.283C703.891 230.103 712.278 229.96 722.605 229.96C732.932 229.96 741.319 230.103 741.319 230.283Z" fill="#E0E0E0"/>
<path d="M743.542 276.333C743.542 276.512 734.383 276.656 723.068 276.656C711.753 276.656 702.594 276.512 702.594 276.333C702.594 276.153 711.771 276.027 723.068 276.027C734.365 276.027 743.542 276.171 743.542 276.333Z" fill="#E0E0E0"/>
<path d="M519.457 189.137V251.997H595.967V189.137C595.967 187.708 595.399 186.337 594.388 185.327C593.378 184.316 592.008 183.749 590.579 183.749H524.899C524.187 183.742 523.48 183.876 522.82 184.143C522.16 184.411 521.56 184.807 521.054 185.308C520.548 185.809 520.146 186.405 519.872 187.062C519.598 187.72 519.457 188.425 519.457 189.137Z" fill="#E0E0E0"/>
<path d="M523.051 217.891L523.572 194.776H590.508V207.959" fill="#F5F5F5"/>
<path d="M586.414 188.526H527.918V194.776H586.414V188.526Z" fill="#F5F5F5"/>
<path d="M527.916 188.58H529.048H532.37L544.727 188.472L586.412 188.346H586.717V188.58C586.717 190.573 586.717 192.693 586.717 194.83C586.089 195.459 586.52 195.01 586.376 195.153H567.752H551.246L527.898 195.028H527.773V194.902C527.773 192.89 527.773 191.31 527.773 190.214C527.773 189.729 527.773 189.334 527.773 189.047C527.764 188.915 527.764 188.783 527.773 188.652C527.785 188.795 527.785 188.939 527.773 189.083C527.773 189.388 527.773 189.801 527.773 190.304C527.773 191.382 527.773 192.926 527.773 194.902L527.629 194.776L550.977 194.65H567.482H586.394C586.268 194.776 586.735 194.327 586.107 194.956V188.58L586.412 188.903L544.96 188.76H532.514H529.138H528.24L527.916 188.58Z" fill="#E0E0E0"/>
<path d="M593.221 267.819C593.221 267.999 578.601 268.143 560.569 268.143C542.537 268.143 527.918 267.999 527.918 267.819C527.918 267.64 542.537 267.514 560.569 267.514C578.601 267.514 593.221 267.604 593.221 267.819Z" fill="#E0E0E0"/>
<path d="M513.655 206.54L519.528 252.087H596.038V207.959H561.231L554.478 202.032H517.535C516.973 202.042 516.421 202.171 515.912 202.41C515.404 202.649 514.952 202.992 514.586 203.418C514.22 203.843 513.948 204.341 513.787 204.879C513.627 205.417 513.582 205.983 513.655 206.54Z" fill="#EBEBEB"/>
<path d="M574.917 225.793C574.917 225.973 566.53 226.116 556.203 226.116C545.876 226.116 537.488 225.973 537.488 225.793C537.488 225.614 545.876 225.488 556.203 225.488C566.53 225.488 574.917 225.631 574.917 225.793Z" fill="#E0E0E0"/>
<path d="M574.917 230.283C574.917 230.463 566.53 230.588 556.203 230.588C545.876 230.588 537.488 230.463 537.488 230.283C537.488 230.103 545.876 229.96 556.203 229.96C566.53 229.96 574.917 230.103 574.917 230.283Z" fill="#E0E0E0"/>
<path d="M577.183 276.333C577.183 276.512 568.024 276.656 556.709 276.656C545.394 276.656 536.234 276.512 536.234 276.333C536.234 276.153 545.412 276.027 556.709 276.027C568.006 276.027 577.183 276.171 577.183 276.333Z" fill="#E0E0E0"/>
<path d="M517.07 322.831V385.691H593.562V322.831C593.562 321.402 592.994 320.032 591.984 319.021C590.973 318.011 589.603 317.443 588.174 317.443H522.494C521.784 317.438 521.079 317.574 520.421 317.843C519.763 318.111 519.165 318.508 518.661 319.008C518.157 319.509 517.757 320.105 517.484 320.761C517.211 321.417 517.07 322.12 517.07 322.831Z" fill="#E0E0E0"/>
<path d="M520.66 351.585L521.163 328.47H588.1V341.653" fill="#F5F5F5"/>
<path d="M584.007 322.22H525.512V328.47H584.007V322.22Z" fill="#F5F5F5"/>
<path d="M525.51 322.238H525.797H526.642H529.964L542.321 322.148L584.006 322.005H584.329V328.56C583.7 329.189 584.131 328.74 583.988 328.883H565.345H548.84L525.492 328.758H525.348V328.614C525.348 326.603 525.348 325.022 525.348 323.926C525.348 323.442 525.348 323.064 525.348 322.759C525.348 322.454 525.348 322.364 525.348 322.382C525.364 322.519 525.364 322.658 525.348 322.795C525.348 323.118 525.348 323.513 525.348 324.016C525.348 325.094 525.348 326.638 525.348 328.614L525.223 328.488L548.571 328.363H565.076H583.718C583.593 328.506 584.06 328.057 583.431 328.668V322.436L583.736 322.741L542.285 322.597H529.838H526.462H525.241L525.51 322.238Z" fill="#E0E0E0"/>
<path d="M590.885 401.514C590.885 401.693 576.265 401.837 558.233 401.837C540.201 401.837 525.582 401.693 525.582 401.514C525.582 401.334 540.201 401.208 558.233 401.208C576.265 401.208 590.885 401.352 590.885 401.514Z" fill="#E0E0E0"/>
<path d="M511.176 340.216L517.067 385.763H593.559V341.653H558.824L552.089 335.726H515.128C514.562 335.727 514.003 335.848 513.487 336.081C512.972 336.314 512.512 336.655 512.138 337.079C511.765 337.504 511.486 338.003 511.32 338.544C511.154 339.085 511.105 339.655 511.176 340.216Z" fill="#EBEBEB"/>
<path d="M572.511 359.505C572.511 359.667 564.141 359.811 553.796 359.811C543.451 359.811 535.082 359.667 535.082 359.505C535.082 359.344 543.469 359.182 553.796 359.182C564.123 359.182 572.511 359.326 572.511 359.505Z" fill="#E0E0E0"/>
<path d="M572.511 363.977C572.511 364.157 564.141 364.283 553.796 364.283C543.451 364.283 535.082 364.157 535.082 363.977C535.082 363.798 543.469 363.672 553.796 363.672C564.123 363.672 572.511 363.798 572.511 363.977Z" fill="#E0E0E0"/>
<path d="M574.718 410.027C574.718 410.206 565.559 410.35 554.244 410.35C542.929 410.35 533.77 410.206 533.77 410.027C533.77 409.847 542.947 409.721 554.244 409.721C565.541 409.721 574.718 409.865 574.718 410.027Z" fill="#E0E0E0"/>
<path d="M685.281 322.831V385.691H761.791V322.831C761.791 321.402 761.223 320.032 760.213 319.021C759.202 318.011 757.832 317.443 756.403 317.443H690.705C689.995 317.438 689.29 317.574 688.632 317.843C687.974 318.111 687.376 318.508 686.872 319.008C686.368 319.509 685.968 320.105 685.695 320.761C685.422 321.417 685.281 322.12 685.281 322.831Z" fill="#E0E0E0"/>
<path d="M688.875 351.585L689.378 328.47H756.333V341.653" fill="#F5F5F5"/>
<path d="M752.238 322.22H693.742V328.47H752.238V322.22Z" fill="#F5F5F5"/>
<path d="M693.741 322.238C693.741 322.238 693.83 322.238 694.01 322.238H694.854H698.177L710.551 322.148L752.236 322.005H752.524V328.56L752.2 328.883H733.576H717.071L693.723 328.758H693.579V328.614C693.579 326.603 693.579 325.022 693.669 323.926C693.669 323.442 693.669 323.064 693.669 322.759C693.669 322.454 693.669 322.364 693.669 322.382C693.676 322.52 693.676 322.657 693.669 322.795C693.669 323.118 693.669 323.513 693.669 324.016C693.669 325.094 693.669 326.638 693.669 328.614L693.543 328.488L716.891 328.363H733.396H752.039C751.895 328.506 752.362 328.057 751.733 328.668V322.436L752.057 322.741L710.587 322.597H698.159H694.764H693.561L693.741 322.238Z" fill="#E0E0E0"/>
<path d="M759.045 401.514C759.045 401.693 744.425 401.837 726.393 401.837C708.362 401.837 693.742 401.693 693.742 401.514C693.742 401.334 708.362 401.208 726.393 401.208C744.425 401.208 759.045 401.352 759.045 401.514Z" fill="#E0E0E0"/>
<path d="M679.391 340.216L685.282 385.763H761.792V341.653H727.039L720.304 335.726H683.342C682.777 335.727 682.218 335.848 681.702 336.081C681.187 336.314 680.727 336.655 680.353 337.079C679.98 337.504 679.701 338.003 679.535 338.544C679.369 339.085 679.32 339.655 679.391 340.216Z" fill="#EBEBEB"/>
<path d="M740.723 359.505C740.723 359.667 732.354 359.811 722.027 359.811C711.7 359.811 703.312 359.667 703.312 359.505C703.312 359.344 711.682 359.2 721.991 359.2C732.3 359.2 740.723 359.326 740.723 359.505Z" fill="#E0E0E0"/>
<path d="M740.723 363.977C740.723 364.157 732.354 364.283 722.027 364.283C711.7 364.283 703.312 364.157 703.312 363.977C703.312 363.798 711.682 363.672 722.027 363.672C732.372 363.672 740.723 363.798 740.723 363.977Z" fill="#E0E0E0"/>
<path d="M743.007 410.027C743.007 410.206 733.83 410.35 722.533 410.35C711.236 410.35 702.059 410.206 702.059 410.027C702.059 409.847 711.218 409.721 722.533 409.721C733.848 409.721 743.007 409.865 743.007 410.027Z" fill="#E0E0E0"/>
<path d="M140.195 746.328C140.195 746.328 92.745 691.712 74.8388 637.095C56.9327 582.479 65.4278 588.747 65.4278 588.747C65.4278 588.747 89.602 641.801 107.957 667.43C126.312 693.059 158.999 730.649 158.999 730.649L140.195 746.328Z" fill="#639C38"/>
<path d="M149.643 597.242C149.323 596.679 148.815 596.247 148.209 596.019C147.603 595.792 146.937 595.785 146.326 595.998C145.715 596.212 145.198 596.633 144.865 597.189C144.533 597.744 144.406 598.398 144.506 599.038C147.398 618.237 153.648 663.245 153.486 692.43C153.181 730.361 153.486 745.017 153.486 745.017H173.242C173.242 745.017 169.65 666.603 165.268 642.645C162.071 625.924 155.426 607.317 149.643 597.242Z" fill="#639C38"/>
<path d="M160.418 738.623C168.696 719.871 174.172 700.005 176.672 679.66C178.288 665.705 175.397 646.829 171.086 621.65C169.412 612.441 168.577 603.099 168.59 593.74C168.6 592.698 168.955 591.689 169.6 590.871C170.245 590.052 171.143 589.471 172.154 589.219C173.165 588.966 174.231 589.056 175.185 589.474C176.139 589.893 176.927 590.616 177.426 591.531C179.815 595.787 186.711 610.317 188.471 619.423C193.249 644.279 198.655 656.707 194.524 680.307C190.393 703.906 175.073 740.221 175.073 740.221L160.418 738.623Z" fill="#639C38"/>
<path d="M178.199 740.221C178.199 740.221 230.283 628.259 233.875 611.646C237.467 595.033 249.77 556.76 251.207 558.933C252.643 561.106 254.799 581.311 245.441 604.426C236.084 627.54 195.962 743.634 195.962 743.634H178.199" fill="#639C38"/>
<path d="M154.707 735.211C154.192 734.922 153.704 734.586 153.253 734.205C152.319 733.504 150.918 732.517 149.212 731.134C145.745 728.404 140.878 724.255 135.203 718.777C120.566 704.331 107.885 688.028 97.4869 670.285C87.098 652.533 78.4547 633.814 71.6783 614.394C69.0562 606.958 67.1524 600.87 65.9132 596.649C65.2666 594.53 64.8356 592.878 64.5303 591.764C64.3401 591.179 64.2019 590.578 64.1172 589.968C64.3738 590.5 64.5841 591.053 64.7458 591.62C65.1409 592.824 65.6617 594.44 66.3263 596.452C67.6912 600.636 69.7207 606.671 72.4147 614.07C79.3936 633.347 88.1038 651.951 98.4387 669.657C108.835 687.315 121.397 703.605 135.831 718.149C141.417 723.698 146.176 727.919 149.553 730.721C151.223 732.157 152.588 733.199 153.45 733.953C153.903 734.338 154.323 734.758 154.707 735.211Z" fill="#263238"/>
<path d="M160.417 681.492C160.146 680.416 159.989 679.315 159.95 678.206C159.699 675.889 159.375 672.818 158.98 669.226C158.154 661.647 156.861 651.266 155.029 639.717C153.197 628.169 151.132 617.914 149.533 610.479C148.761 606.887 148.132 603.923 147.629 601.642C147.339 600.572 147.147 599.478 147.055 598.374C147.48 599.396 147.817 600.454 148.06 601.534C148.635 603.6 149.407 606.581 150.305 610.299C152.101 617.716 154.275 628.043 156.124 639.556C157.974 651.068 159.142 661.539 159.716 669.154C160.022 672.943 160.237 676.033 160.327 678.134C160.45 679.249 160.48 680.372 160.417 681.492Z" fill="#263238"/>
<path d="M172.614 590.651C172.869 591.099 173.074 591.575 173.224 592.069L174.787 596.236C175.487 598.032 176.278 600.259 177.032 602.899C177.786 605.539 178.828 608.485 179.564 611.879L180.857 617.142C181.289 618.938 181.594 620.913 181.989 622.907C182.851 626.876 183.372 631.186 184 635.712C185.123 645.56 185.543 655.475 185.258 665.382C184.835 675.292 183.707 685.159 181.881 694.908C180.929 699.362 180.085 703.637 178.972 707.48C178.415 709.438 177.966 711.36 177.409 713.156L175.739 718.4C174.751 721.705 173.53 724.596 172.578 727.165C171.626 729.733 170.782 731.906 169.866 733.648L168.07 737.689C167.881 738.169 167.64 738.627 167.352 739.054C167.473 738.554 167.641 738.067 167.854 737.599C168.285 736.558 168.842 735.193 169.525 733.486C170.207 731.78 171.159 729.535 172.039 726.931C172.919 724.327 174.105 721.543 175.056 718.149C175.559 716.514 176.08 714.79 176.637 712.994C177.194 711.198 177.607 709.294 178.128 707.337C179.205 703.439 179.924 699.201 180.929 694.765C182.68 685.061 183.772 675.251 184.198 665.4C184.481 655.549 184.097 645.691 183.049 635.892C182.438 631.384 181.953 627.091 181.145 623.122C180.768 621.147 180.48 619.207 180.067 617.375C179.654 615.543 179.241 613.783 178.846 612.113C178.146 608.754 177.194 605.791 176.493 603.133C175.793 600.475 175.056 598.248 174.428 596.416L173.081 592.195C172.874 591.697 172.718 591.18 172.614 590.651Z" fill="#263238"/>
<path d="M250.65 561.178C250.67 561.345 250.67 561.514 250.65 561.681C250.65 562.076 250.506 562.543 250.417 563.136C250.183 564.411 249.896 566.297 249.393 568.703C248.387 573.517 246.699 580.449 244.005 588.855C241.311 597.26 237.863 607.138 233.642 617.968C229.421 628.798 224.554 640.615 219.921 653.187C215.287 665.759 211.605 677.99 208.211 689.107C204.816 700.225 201.637 710.21 198.548 718.454C196.184 724.989 193.456 731.387 190.376 737.617C189.317 739.826 188.347 741.479 187.736 742.628L187 743.903C186.838 744.191 186.748 744.334 186.73 744.316C186.764 744.152 186.825 743.994 186.91 743.849L187.539 742.52C188.095 741.353 188.993 739.665 189.999 737.42C192.083 732.984 194.92 726.464 197.866 718.185C200.811 709.905 203.972 699.955 207.277 688.82C210.581 677.685 214.227 665.472 218.933 652.9C223.638 640.328 228.487 628.492 232.744 617.68C237.001 606.868 240.628 597.08 243.322 588.711C246.016 580.342 247.794 573.481 248.926 568.703C249.501 566.315 249.86 564.447 250.165 563.172C250.291 562.597 250.417 562.13 250.506 561.753C250.519 561.554 250.568 561.359 250.65 561.178Z" fill="#263238"/>
<path d="M89.9993 536.447C89.2849 535.751 88.3583 535.314 87.3668 535.205C86.3753 535.096 85.3758 535.322 84.5273 535.846C83.6788 536.37 83.0299 537.163 82.6839 538.099C82.3379 539.035 82.3146 540.059 82.6177 541.009C84.3966 546.772 86.5812 552.401 89.1552 557.856C96.3392 573.068 117.352 627.684 127.212 657.677C137.072 687.671 150.866 743.634 150.866 743.634L171.897 740.221C171.897 740.221 152.662 648.356 133.929 615.148C118.825 588.531 103.703 550.061 89.9993 536.447Z" fill="#639C38"/>
<path d="M132.902 676.446C133.364 677.238 133.732 678.082 133.998 678.96C134.609 680.612 135.471 683.019 136.423 686.018C138.362 692.017 140.733 700.386 143.104 709.707C145.474 719.029 147.486 727.506 148.869 733.648C149.497 736.54 150.018 739.036 150.449 740.922C150.682 741.809 150.827 742.718 150.88 743.634C150.505 742.797 150.216 741.925 150.018 741.03C149.515 739.108 148.869 736.701 148.097 733.846C146.48 727.524 144.379 719.208 142.026 710.013C139.673 700.817 137.41 692.304 135.668 686.27C134.842 683.414 134.142 681.025 133.585 679.086C133.27 678.23 133.041 677.346 132.902 676.446Z" fill="#263238"/>
<path d="M161.495 741.928C161.436 741.747 161.4 741.56 161.388 741.371C161.388 740.922 161.244 740.383 161.136 739.719C160.921 738.264 160.723 736.127 160.274 733.343C159.502 727.811 158.137 719.855 155.874 710.138C153.181 698.779 149.896 687.569 146.032 676.553C141.704 664.089 136.298 650.619 130.173 636.682C117.799 608.862 105.442 584.167 97.3064 565.92C93.2115 556.796 90.1224 549.378 87.9313 544.188C86.8717 541.602 86.1353 539.572 85.5785 538.207C85.3271 537.579 85.1475 537.058 84.9859 536.645C84.9056 536.468 84.8512 536.28 84.8242 536.088C84.9335 536.244 85.0239 536.413 85.0936 536.591L85.7761 538.118C86.4047 539.554 87.2488 541.53 88.3444 544.026C90.5535 549.145 93.8401 556.598 98.0248 565.578C106.322 583.7 118.805 608.359 131.197 636.233C137.321 650.188 142.727 663.694 147.002 676.212C150.836 687.281 154.056 698.553 156.646 709.977C158.393 717.686 159.748 725.479 160.705 733.325C161.082 736.091 161.208 738.264 161.37 739.719L161.495 741.389C161.516 741.568 161.516 741.749 161.495 741.928Z" fill="#263238"/>
<path d="M171.966 740.222C171.632 739.045 171.392 737.844 171.248 736.63C170.835 734.169 170.278 730.9 169.613 726.967C168.177 718.813 166.021 707.588 162.771 695.375C159.52 683.163 156.072 672.333 153.342 664.52C152.013 660.749 150.899 657.641 150.055 655.289C149.592 654.177 149.219 653.03 148.941 651.858C149.541 652.903 150.051 653.997 150.468 655.127C151.366 657.264 152.641 660.371 154.06 664.251C157.862 674.374 161.123 684.691 163.83 695.16C166.549 705.621 168.737 716.213 170.386 726.895C170.978 730.99 171.427 734.313 171.661 736.63C171.853 737.818 171.955 739.018 171.966 740.222Z" fill="#263238"/>
<path d="M215.142 737.204H133.047V837.223H215.142V737.204Z" fill="#024334"/>
<path d="M188.941 737.204H116.113V837.223H188.941V737.204Z" fill="#00503E"/>
<path d="M694.892 514.68L651.734 508.43L565.4 521.199L541.172 529.766L545.464 582.748L628.475 598.032L684.475 581.437L705.65 550.277L694.892 514.68Z" fill="#FFBE9D"/>
<path d="M722.1 519.745L685.965 511.231C685.965 511.231 660.443 590.255 597.422 586.789C546.056 584.005 545.463 526.677 545.463 526.677L508.448 538.531C508.448 538.531 494.277 633.485 509.957 700.763C513.549 716.478 518.523 737.653 518.523 737.653L513.513 835.948L787.295 836.379L722.1 519.745Z" fill="#FA5457"/>
<g opacity="0.3">
<path opacity="0.3" d="M614.77 816.875C628.096 816.533 640.381 817.665 653.707 817.342C669.691 816.947 685.801 816.551 701.588 819.138C713.406 821.095 724.936 824.687 736.754 826.555C752.918 829.105 770.141 828.207 784.509 820.431L782.193 807.015L727.63 793.832L614.77 816.875Z" fill="black"/>
</g>
<path d="M477.536 560.657C490.108 544.493 510.869 537.758 510.869 537.758L524.878 659.689L498.351 837.241L411.461 836.828C411.461 836.828 459.378 584.095 477.536 560.657Z" fill="#FA5457"/>
<path d="M717.877 518.846C717.877 518.846 776.355 523.534 797.332 619.422C806.815 662.76 818.884 713.533 822.278 747.675C824.775 772.424 811.323 811.181 786.646 814.36L755.611 818.527C749.526 819.403 743.333 819.178 737.328 817.862C717.733 813.354 715.776 799.902 712.184 785.534L703.204 756.942C698.247 729.751 723.588 724.614 737.579 724.991L727.144 600.87L717.877 518.846Z" fill="#FA5457"/>
<path d="M503.631 605.557C503.494 605.99 503.404 606.435 503.361 606.886C503.218 607.856 503.02 609.149 502.769 610.748C502.661 611.592 502.517 612.544 502.374 613.55C502.23 614.555 502.158 615.687 502.032 616.89C501.781 619.279 501.494 622.009 501.368 625.044C500.952 632.143 500.904 639.259 501.224 646.362C501.652 655.051 502.515 663.713 503.81 672.315C505.157 681.492 506.846 690.149 508.57 697.979C510.294 705.81 511.964 712.832 513.437 718.723C514.91 724.614 516.149 729.338 517.029 732.606C517.46 734.169 517.801 735.426 518.071 736.36C518.167 736.805 518.312 737.239 518.502 737.653C518.463 737.203 518.379 736.757 518.25 736.324C518.035 735.354 517.747 734.097 517.388 732.516C516.58 729.122 515.449 724.381 514.048 718.562C512.647 712.743 511.03 705.63 509.396 697.8C507.762 689.969 506.055 681.331 504.726 672.189C503.397 663.047 502.463 654.229 502.068 646.309C501.673 638.388 501.655 631.114 502.068 625.08C502.158 622.045 502.392 619.333 502.589 616.926C502.673 615.729 502.763 614.615 502.859 613.585C502.966 612.58 503.074 611.646 503.164 610.784C503.343 609.185 503.487 607.892 503.577 606.904C503.639 606.458 503.657 606.007 503.631 605.557Z" fill="#263238"/>
<path d="M783.467 758.576C783.428 757.743 783.289 756.917 783.054 756.116C782.481 753.954 781.724 751.845 780.791 749.812C777.723 743.033 772.946 737.167 766.93 732.787C760.914 728.408 753.864 725.666 746.47 724.83C744.248 724.559 742.006 724.487 739.771 724.614C738.948 724.624 738.128 724.726 737.328 724.919C740.33 724.937 743.328 725.123 746.308 725.476C753.534 726.479 760.401 729.249 766.3 733.541C772.2 737.833 776.949 743.515 780.127 750.081C781.388 752.853 782.503 755.688 783.467 758.576Z" fill="#263238"/>
<path d="M769.962 710.839C769.499 710.722 769.02 710.68 768.543 710.713C767.253 710.69 765.964 710.75 764.682 710.893C760.442 711.324 756.286 712.364 752.343 713.982C748.405 715.617 744.716 717.8 741.388 720.466C740.383 721.268 739.43 722.132 738.532 723.052C737.903 723.716 737.58 724.093 737.616 724.147C737.652 724.201 739.196 722.89 741.801 720.986C748.573 716.013 756.459 712.77 764.772 711.539C767.95 711.072 769.962 711.001 769.962 710.839Z" fill="#263238"/>
<path d="M709.421 586.789C709.552 585.94 709.6 585.08 709.564 584.221C709.564 582.569 709.672 580.198 709.87 577.27C710.917 561.959 715.111 547.029 722.19 533.412C723.537 530.808 724.705 528.724 725.549 527.324C726.022 526.61 726.425 525.852 726.752 525.061C726.179 525.699 725.668 526.391 725.225 527.126C724.291 528.491 723.034 530.52 721.633 533.107C714.178 546.679 709.938 561.783 709.241 577.252C709.133 580.198 709.133 582.64 709.241 584.239C709.213 585.093 709.273 585.948 709.421 586.789Z" fill="#263238"/>
<path d="M597.422 673.769C597.461 674.114 597.545 674.452 597.673 674.775C597.889 675.422 598.158 676.409 598.643 677.595C599.952 681.027 601.582 684.328 603.51 687.455C609.884 697.881 619.136 706.242 630.151 711.531C641.167 716.821 653.476 718.813 665.598 717.268C669.254 716.814 672.861 716.026 676.374 714.916C677.613 714.538 678.547 714.125 679.176 713.892C679.506 713.785 679.824 713.647 680.128 713.479C680.128 713.389 678.745 713.856 676.266 714.556C672.739 715.545 669.134 716.23 665.49 716.604C653.507 718.013 641.37 715.99 630.493 710.769C619.616 705.548 610.445 697.344 604.049 687.114C602.094 684.04 600.388 680.815 598.948 677.469C598.068 675.098 597.494 673.733 597.422 673.769Z" fill="#263238"/>
<path d="M720.66 808.559C720.75 808.469 721.666 809.78 723.857 811.576C727.062 813.996 730.73 815.732 734.633 816.677C740.382 818.116 746.321 818.643 752.234 818.24C758.915 817.755 766.296 816.964 773.947 815.833C781.154 814.9 788.252 813.264 795.14 810.948C798.015 809.684 800.647 807.928 802.917 805.757C804.919 803.88 806.724 801.804 808.305 799.561C810.647 796.32 812.651 792.848 814.286 789.198C814.842 787.887 815.273 786.881 815.543 786.181C815.649 785.814 815.806 785.463 816.01 785.139C815.942 785.511 815.846 785.878 815.722 786.235C815.507 786.971 815.13 788.031 814.609 789.342C813.102 793.09 811.168 796.652 808.844 799.956C807.273 802.257 805.468 804.388 803.456 806.314C801.14 808.571 798.439 810.395 795.482 811.702C788.551 814.11 781.388 815.79 774.109 816.713C766.404 817.862 759.041 818.617 752.306 819.066C746.303 819.419 740.283 818.812 734.471 817.27C730.539 816.255 726.866 814.419 723.695 811.882C722.86 811.161 722.096 810.361 721.414 809.493C721.124 809.215 720.871 808.901 720.66 808.559Z" fill="#263238"/>
<path d="M711.016 617.321C711.249 617.321 717.427 641.19 724.773 670.788C732.119 700.386 737.884 724.417 737.632 724.489C737.381 724.56 731.221 700.602 723.875 671.004C716.529 641.406 710.764 617.375 711.016 617.321Z" fill="#263238"/>
<path d="M703.563 752.524C703.372 751.882 703.269 751.218 703.258 750.548C703.078 748.758 703.036 746.957 703.132 745.16C703.337 742.419 704.247 739.778 705.772 737.492C706.636 736.132 707.641 734.868 708.772 733.72C710.023 732.524 711.416 731.487 712.92 730.631C718.24 727.84 723.999 725.981 729.946 725.135C731.732 724.878 733.531 724.722 735.334 724.668C735.995 724.57 736.667 724.57 737.328 724.668C737.328 724.812 734.508 724.919 730.036 725.728C724.221 726.729 718.598 728.632 713.369 731.367C711.928 732.187 710.589 733.176 709.382 734.313C708.292 735.407 707.317 736.611 706.473 737.905C704.985 740.035 704.059 742.506 703.779 745.089C703.619 746.88 703.565 748.679 703.617 750.477C703.678 751.159 703.66 751.846 703.563 752.524Z" fill="#263238"/>
<g opacity="0.3">
<path opacity="0.3" d="M506.326 686.072C491.401 660.802 491.078 627.972 504.099 601.66C499.929 629.694 500.83 658.249 506.757 685.964" fill="black"/>
</g>
<path d="M585.945 749.381L586.179 749.489L585.945 749.381Z" fill="#FFBE9D"/>
<path d="M585.496 749.13L586.035 749.381L585.496 749.13Z" fill="#FFBE9D"/>
<path d="M585.062 748.932L585.296 749.04L585.062 748.932Z" fill="#FFBE9D"/>
<path d="M530.125 799.418C534.831 790.545 571.523 767.09 571.523 767.09L561.591 764.791L550.618 769.424C549.788 773.144 548.178 776.646 545.894 779.698C541.871 785.445 535.028 779.5 535.028 779.5L539.662 757.283L561.358 744.227C561.358 744.227 581.76 747.352 585.065 748.932L593.758 756.888C597.583 759.888 608.61 771.687 611.628 772.047C614.645 772.406 709.42 751.123 709.42 751.123C722.405 761.414 729.176 781.835 731.295 796.58C731.295 796.58 733.612 803.764 731.098 807.751L614.843 816.875L590.202 823.682C583.603 826.41 576.843 828.732 569.961 830.632C561.771 832.428 556.257 829.716 556.024 825.244C555.79 820.772 562.166 820.215 562.166 820.215C567.602 818.264 572.895 815.936 578.007 813.247C581.75 810.753 584.831 807.388 586.987 803.441L578.204 804.482C578.204 804.482 559.526 817.449 552.503 821.257C545.481 825.064 544.098 818.078 543.523 815.869C542.949 813.66 564.501 792.683 564.501 792.683C564.501 792.683 544.008 805.255 540.327 808.487C536.645 811.72 531.185 812.636 530.018 810.499C528.85 808.362 525.438 808.29 530.125 799.418Z" fill="#FFBE9D"/>
<path d="M586.176 749.489L586.373 749.596L586.176 749.489Z" fill="#FFBE9D"/>
<path d="M631.168 801.465C631.272 800.994 631.308 800.51 631.275 800.028C631.296 799.463 631.26 798.898 631.168 798.34C631.096 797.593 630.957 796.854 630.755 796.131C629.587 791.936 627.563 788.029 624.81 784.655C622.126 781.269 619.119 778.153 615.83 775.351C614.54 774.119 613.125 773.023 611.609 772.083C612.805 773.395 614.076 774.637 615.417 775.8C618.545 778.71 621.451 781.85 624.109 785.193C626.801 788.481 628.848 792.246 630.144 796.293C631.078 799.418 630.988 801.483 631.168 801.465Z" fill="#EB996E"/>
<path d="M572.367 766.425C574.469 766.735 576.614 766.543 578.627 765.866C580.64 765.189 582.465 764.045 583.951 762.528C583.808 762.33 581.563 764 578.348 765.042C575.133 766.084 572.367 766.174 572.367 766.425Z" fill="#EB996E"/>
<path d="M566.258 790.743C572.581 788.76 578.722 786.236 584.613 783.2C581.406 784.047 578.281 785.177 575.274 786.576C572.156 787.707 569.14 789.101 566.258 790.743Z" fill="#EB996E"/>
<path d="M585.945 803.171C587.599 802.793 589.203 802.22 590.723 801.465C592.354 800.991 593.922 800.321 595.392 799.471C591.965 799.82 588.698 801.1 585.945 803.171Z" fill="#EB996E"/>
<path d="M569.332 792.359C570.65 793.268 571.855 794.329 572.924 795.52C573.792 796.879 574.491 798.339 575.007 799.867C575.115 799.867 575.223 799.274 575.007 798.34C574.789 797.125 574.284 795.98 573.535 794.999C572.792 794.019 571.825 793.23 570.715 792.701C569.907 792.305 569.332 792.27 569.332 792.359Z" fill="#EB996E"/>
<path d="M560.675 778.8C560.549 779.015 562.166 779.895 563.225 781.745C563.764 782.933 564.203 784.165 564.536 785.427C564.797 784.739 564.879 783.996 564.775 783.267C564.672 782.539 564.386 781.848 563.944 781.26C562.74 779.177 560.711 778.566 560.675 778.8Z" fill="#EB996E"/>
<path d="M563.583 754.554C563.691 754.554 564.014 754.194 564.284 753.386C564.562 752.326 564.562 751.213 564.284 750.153C564.027 749.088 563.494 748.11 562.739 747.316C562.147 746.723 561.662 746.507 561.59 746.597C562.342 747.776 562.945 749.042 563.386 750.369C563.641 751.748 563.707 753.156 563.583 754.554Z" fill="#EB996E"/>
<path d="M732.048 811.074C731.928 810.187 731.88 809.292 731.904 808.398C731.904 807.536 731.904 806.494 731.779 805.273C731.653 804.051 731.671 802.668 731.491 801.16C730.818 793.189 729.109 785.341 726.409 777.812C724.892 773.699 723.054 769.711 720.913 765.886C719.835 764.09 718.901 762.492 717.824 761.037C717.321 760.301 716.818 759.6 716.333 758.918C715.848 758.235 715.327 757.625 714.842 757.122C710.981 752.362 708.018 749.938 708.161 749.794C708.914 750.273 709.613 750.834 710.245 751.464C711.053 752.143 711.821 752.868 712.543 753.638C713.388 754.518 714.34 755.434 715.363 756.691C715.848 757.301 716.369 757.912 716.908 758.487C717.447 759.062 717.932 759.87 718.47 760.606C719.584 762.061 720.554 763.749 721.649 765.473C723.868 769.317 725.755 773.342 727.289 777.506C730.013 785.092 731.652 793.025 732.156 801.07C732.282 802.597 732.264 803.997 732.299 805.219C732.335 806.44 732.299 807.5 732.299 808.362C732.308 809.272 732.224 810.181 732.048 811.074Z" fill="#263238"/>
<g opacity="0.3">
<path opacity="0.3" d="M771.936 728.009C761.034 723.507 749.025 722.411 737.488 724.866C747.405 724.409 757.217 727.06 765.553 732.451C773.889 737.841 780.334 745.7 783.987 754.931C784.813 757.158 786.465 759.798 788.836 759.457C791.207 759.115 791.853 756.367 791.853 754.158C791.871 742.538 782.658 732.481 771.936 728.009Z" fill="black"/>
</g>
<path d="M502.877 597.332C502.34 597.234 501.82 597.058 501.333 596.811C500.345 596.434 498.962 595.805 497.274 595.015C492.868 592.815 488.662 590.237 484.702 587.31C480.757 584.397 477.068 581.152 473.674 577.612C472.381 576.247 471.358 575.097 470.711 574.289C470.065 573.481 469.705 572.996 469.759 572.942C469.813 572.888 471.447 574.558 474.141 577.145C477.642 580.521 481.356 583.671 485.259 586.574C489.173 589.453 493.271 592.075 497.525 594.422C500.902 596.272 502.985 597.206 502.877 597.332Z" fill="white"/>
<path d="M710.263 604.103C710.128 604.224 709.977 604.327 709.814 604.408L708.431 605.234C707.228 605.97 705.396 607.03 703.043 608.215C696.3 611.676 689.306 614.624 682.12 617.034C671.445 620.565 660.493 623.197 649.379 624.9C635.77 626.926 622.043 628.066 608.286 628.313C593.649 628.654 579.712 628.313 566.978 628.097C555.742 627.939 544.526 627.094 533.393 625.565C525.882 624.5 518.479 622.781 511.267 620.428C508.734 619.566 506.777 618.848 505.483 618.291L504.011 617.662C503.835 617.602 503.667 617.524 503.508 617.429L504.047 617.573L505.555 618.111C506.866 618.614 508.842 619.279 511.392 620.087C518.616 622.282 526.003 623.897 533.483 624.918C544.6 626.339 555.79 627.113 566.996 627.235C579.568 627.469 593.577 627.72 608.179 627.379C621.897 627.138 635.587 626.022 649.163 624.038C660.244 622.391 671.17 619.838 681.833 616.405C689.014 614.058 696.024 611.214 702.81 607.892C705.199 606.707 707.048 605.755 708.198 605.072L709.617 604.336C710.084 604.156 710.245 604.085 710.263 604.103Z" fill="white"/>
<path d="M503.562 668.112C502.804 668.042 502.057 667.886 501.335 667.645L495.354 666.011C490.326 664.592 483.393 662.562 475.742 660.281C468.091 658 461.194 655.863 456.202 654.283L450.311 652.379C449.58 652.169 448.871 651.893 448.191 651.553C448.949 651.622 449.696 651.779 450.418 652.02L456.399 653.654C461.428 655.073 468.361 657.102 476.011 659.383C483.662 661.664 490.559 663.784 495.552 665.364L501.443 667.286C502.176 667.486 502.887 667.763 503.562 668.112Z" fill="white"/>
<path d="M508.789 767.377C508.789 767.61 490.829 762.474 468.739 755.882C446.648 749.291 428.885 743.741 428.957 743.49C429.029 743.239 446.917 748.375 469.008 754.984C491.099 761.594 508.861 767.125 508.789 767.377Z" fill="white"/>
<path d="M768.365 552.611C767.761 553.198 767.099 553.721 766.389 554.174C765.096 555.126 763.157 556.455 760.732 558.035C748.047 566.24 734.442 572.925 720.196 577.953C717.466 578.905 715.239 579.623 713.677 580.072C712.886 580.36 712.068 580.565 711.234 580.683C711.982 580.295 712.764 579.977 713.569 579.731L719.981 577.342C725.369 575.277 732.75 572.224 740.653 568.362C748.555 564.501 755.488 560.514 760.409 557.496L766.228 553.904C766.896 553.404 767.612 552.971 768.365 552.611Z" fill="white"/>
<path d="M804.14 654.66C803.205 655.191 802.233 655.653 801.231 656.043C799.345 656.887 796.543 658 793.059 659.276C774.846 665.909 755.724 669.712 736.359 670.554C732.641 670.716 729.642 670.752 727.559 670.68C726.485 670.704 725.411 670.656 724.344 670.537C725.407 670.375 726.483 670.303 727.559 670.321C729.624 670.321 732.623 670.141 736.323 669.89C745.943 669.279 755.512 668.037 764.969 666.172C774.419 664.274 783.735 661.766 792.861 658.665C796.363 657.462 799.183 656.438 801.123 655.702C802.097 655.269 803.106 654.92 804.14 654.66Z" fill="white"/>
<path d="M752.522 817.88C752.508 817.543 752.538 817.204 752.612 816.875C752.719 816.138 752.881 815.204 753.061 814.055C753.24 812.905 753.51 811.325 753.689 809.565C753.869 807.805 754.174 805.829 754.246 803.602C754.246 802.507 754.39 801.339 754.462 800.136C754.533 798.933 754.462 797.657 754.462 796.364C754.462 793.76 754.354 790.976 754.21 788.049C753.738 781.709 752.772 775.416 751.319 769.227C749.794 763.053 747.795 757.006 745.338 751.141C744.117 748.483 743.021 745.915 741.746 743.634C741.135 742.484 740.578 741.353 739.95 740.293L738.154 737.312C737.058 735.372 735.873 733.72 734.921 732.265C733.969 730.81 733.125 729.553 732.317 728.565L730.629 726.248C730.412 725.993 730.231 725.709 730.09 725.404C730.339 725.622 730.567 725.863 730.772 726.123L732.568 728.35C733.547 729.498 734.464 730.697 735.316 731.942C736.322 733.397 737.543 735.013 738.675 736.935L740.471 739.916C741.099 740.958 741.674 742.107 742.267 743.257C743.56 745.537 744.709 748.106 745.859 750.782C751.033 762.55 754.074 775.144 754.839 787.977C754.946 790.922 755.108 793.724 755 796.346C755 797.657 755 798.933 754.893 800.154C754.785 801.375 754.713 802.525 754.623 803.638C754.497 805.883 754.138 807.859 753.905 809.619C753.671 811.379 753.402 812.887 753.132 814.091C752.863 815.294 752.666 816.156 752.504 816.911C752.545 817.232 752.551 817.557 752.522 817.88Z" fill="white"/>
<path d="M821.813 762.833C821.724 762.833 821.67 761.36 821.257 758.774C820.622 755.121 819.41 751.593 817.665 748.321C815.109 743.464 811.667 739.127 807.517 735.534C802.461 731.099 796.602 727.672 790.258 725.44C783.876 723.308 777.21 722.146 770.484 721.992C764.98 721.839 759.473 722.049 753.997 722.621C749.309 723.052 745.519 723.536 742.897 723.824L739.88 724.147C739.528 724.195 739.172 724.195 738.82 724.147C739.15 724.025 739.494 723.947 739.844 723.914L742.843 723.411C745.448 722.998 749.237 722.441 753.925 721.902C759.431 721.246 764.976 720.969 770.52 721.076C777.338 721.211 784.096 722.38 790.563 724.542C797.018 726.829 802.97 730.341 808.092 734.887C812.289 738.573 815.74 743.03 818.257 748.016C819.962 751.393 821.074 755.038 821.544 758.792C821.685 759.804 821.757 760.824 821.76 761.845C821.814 762.171 821.833 762.503 821.813 762.833Z" fill="white"/>
<path d="M628.599 710.839C628.266 710.941 627.922 711.001 627.575 711.018L624.647 711.324L613.871 712.222C604.766 712.922 592.176 713.784 578.275 714.503C564.374 715.221 551.748 715.67 542.606 715.778C538.044 715.778 534.344 715.778 531.83 715.778H528.903C528.558 715.789 528.214 715.753 527.879 715.67C528.216 715.601 528.559 715.571 528.903 715.58H531.83L542.606 715.311C551.712 715.042 564.32 714.503 578.221 713.766L613.818 711.755L624.594 711.144L627.539 711.018C627.883 710.912 628.239 710.852 628.599 710.839Z" fill="white"/>
<g opacity="0.3">
<path opacity="0.3" d="M639.035 714.575C650.35 717.897 665.975 718.705 677.056 714.575C668.436 726.841 651.787 731.278 637.329 727.29C622.871 723.303 609.563 708.845 608.449 693.885C615.454 703.314 627.72 711.216 639.035 714.575Z" fill="black"/>
</g>
<path d="M730.792 702.739C730.494 702.848 730.188 702.932 729.876 702.99L727.271 703.547C724.991 704.014 721.704 704.625 717.609 705.343C709.437 706.78 698.104 708.54 685.55 710.084C672.996 711.629 661.556 712.635 653.222 713.21C649.092 713.497 645.733 713.694 643.416 713.784L640.758 713.874C640.449 713.925 640.133 713.925 639.824 713.874C640.124 713.797 640.431 713.749 640.74 713.73L643.398 713.461L653.168 712.581C661.43 711.845 672.817 710.785 685.389 709.186C697.961 707.588 709.258 705.99 717.447 704.732L727.146 703.224L729.804 702.847C730.124 702.753 730.459 702.716 730.792 702.739Z" fill="white"/>
<g opacity="0.3">
<path opacity="0.3" d="M711.969 622.781C709.132 655.289 717.986 687.545 726.768 718.975C727.159 720.928 727.981 722.769 729.175 724.363C729.792 725.159 730.65 725.735 731.621 726.004C732.592 726.272 733.624 726.22 734.563 725.853C737.311 724.453 736.934 720.466 736.162 717.52L711.754 624.128" fill="black"/>
</g>
<path d="M257.22 655.163L294.128 836.379H614.534C616.23 836.379 617.856 835.706 619.055 834.507C620.254 833.307 620.928 831.681 620.928 829.985C620.928 828.29 620.254 826.663 619.055 825.464C617.856 824.265 616.23 823.592 614.534 823.592H550.022L515.808 655.055C515.488 653.486 514.639 652.073 513.404 651.054C512.169 650.034 510.621 649.468 509.019 649.451L264.153 646.775C263.109 646.762 262.076 646.983 261.128 647.422C260.181 647.86 259.345 648.506 258.68 649.31C258.015 650.115 257.538 651.058 257.286 652.071C257.033 653.084 257.011 654.14 257.22 655.163Z" fill="#455A64"/>
<path d="M257.222 655.163C257.175 654.986 257.139 654.806 257.114 654.624C257.045 654.075 257.045 653.52 257.114 652.972C257.241 651.889 257.612 650.849 258.2 649.931C258.789 649.013 259.578 648.241 260.509 647.674C261.165 647.284 261.881 647.005 262.628 646.847C263.457 646.693 264.301 646.639 265.142 646.686H270.907L285.275 646.812L377.859 647.692L442.408 648.338L478.579 648.715L497.545 648.913L507.225 649.003C508.051 649.003 508.824 649.003 509.704 649.003C510.567 649.087 511.407 649.331 512.182 649.721C513.785 650.474 515.061 651.782 515.774 653.403C516.087 654.196 516.31 655.021 516.439 655.863L516.941 658.306C517.265 659.922 517.606 661.557 517.929 663.191C518.612 666.478 519.276 669.782 519.959 673.087L524.054 693.256C526.82 706.846 529.645 720.753 532.531 734.977C538.314 763.39 544.331 792.934 550.491 823.394L550.06 823.035H613.494C614.329 822.995 615.166 823.044 615.991 823.179C617.71 823.604 619.2 824.671 620.158 826.16C620.702 826.952 621.075 827.849 621.25 828.794C621.426 829.739 621.402 830.71 621.178 831.645C620.955 832.579 620.537 833.456 619.953 834.22C619.369 834.983 618.631 835.614 617.787 836.074C616.858 836.576 615.825 836.852 614.77 836.882H531.309H444.563H294.13H293.86V836.613C282.564 780.937 273.386 735.606 267.028 704.212C263.885 688.515 261.425 676.302 259.754 668.004C258.928 663.856 258.3 660.695 257.958 658.557C257.617 656.42 257.366 655.325 257.366 655.325C257.366 655.325 257.617 656.42 258.066 658.539L260.042 667.95C261.748 676.248 264.262 688.461 267.495 704.122L294.615 836.487L294.273 836.2H444.706H614.895C615.811 836.165 616.707 835.925 617.517 835.499C618.251 835.097 618.892 834.545 619.399 833.879C619.906 833.214 620.268 832.449 620.461 831.635C620.654 830.821 620.674 829.975 620.519 829.153C620.365 828.33 620.04 827.549 619.565 826.861C618.722 825.623 617.436 824.755 615.973 824.436C615.207 824.314 614.431 824.266 613.656 824.292H549.665V823.951C543.486 793.419 537.506 763.929 531.705 735.516C528.819 721.316 525.999 707.409 523.245 693.795L519.043 673.356C518.378 670.034 517.714 666.747 517.049 663.46C516.708 661.826 516.385 660.192 516.043 658.557L515.559 656.133C515.441 655.338 515.23 654.561 514.93 653.816C514.329 652.386 513.241 651.215 511.859 650.511C511.165 650.17 510.418 649.951 509.65 649.865C508.895 649.865 508.033 649.865 507.243 649.865L497.545 649.757L478.579 649.541L442.425 649.11L377.877 648.356L285.293 647.225L270.925 647.027L265.16 646.937C264.332 646.887 263.501 646.929 262.682 647.063C261.956 647.225 261.26 647.498 260.616 647.871C259.691 648.415 258.904 649.164 258.315 650.061C257.727 650.958 257.353 651.979 257.222 653.044C257.132 653.747 257.132 654.459 257.222 655.163Z" fill="#263238"/>
<path d="M404.852 738.156C404.852 740.248 404.232 742.294 403.069 744.033C401.907 745.773 400.255 747.129 398.322 747.929C396.389 748.73 394.262 748.939 392.21 748.531C390.158 748.123 388.273 747.116 386.794 745.636C385.314 744.157 384.307 742.272 383.899 740.22C383.49 738.168 383.7 736.041 384.501 734.108C385.301 732.175 386.657 730.523 388.397 729.36C390.136 728.198 392.182 727.578 394.274 727.578C397.079 727.578 399.77 728.692 401.754 730.676C403.738 732.66 404.852 735.351 404.852 738.156Z" fill="#263238"/>
<path d="M257.508 656.635C257.508 656.635 257.885 656.635 258.621 656.635H274.318L320.134 656.851L471.268 657.911L493.125 658.09H498.513C499.432 658.048 500.353 658.102 501.261 658.252C502.181 658.432 503.059 658.786 503.847 659.294C505.448 660.305 506.609 661.882 507.098 663.712C507.511 665.508 507.798 667.16 508.158 668.884C510.87 682.534 513.546 695.699 515.97 708.235C520.927 733.379 525.399 755.918 529.135 774.902L537.953 819.802C538.959 825.1 539.749 829.213 540.306 832.033C540.557 833.416 540.755 834.475 540.899 835.23C541.042 835.984 541.06 836.307 541.06 836.307C541.06 836.307 540.953 835.948 540.809 835.248C540.665 834.547 540.414 833.452 540.126 832.069C539.552 829.249 538.708 825.154 537.612 819.874C535.457 809.242 532.368 793.904 528.524 774.974L515.162 708.342C512.666 695.77 510.025 682.642 507.313 668.992C506.954 667.304 506.631 665.544 506.272 663.891C505.826 662.278 504.795 660.889 503.38 659.994C502.675 659.566 501.895 659.273 501.081 659.132C500.233 658.992 499.372 658.944 498.513 658.988H493.125L471.268 658.827L320.116 657.498L274.318 656.995L261.854 656.815H258.621L257.508 656.635Z" fill="#263238"/>
<path d="M685.405 381.417C685.775 398.172 682.592 414.817 676.067 430.254C669.541 445.691 659.821 459.572 647.546 470.983C641.882 454.639 636.237 438.296 630.609 421.952" fill="#263238"/>
<path d="M557.82 283.894C572.35 275.955 589.897 274.806 606.133 278.057C622.369 281.308 637.491 288.653 651.823 296.951C659.869 301.602 667.879 306.721 673.662 313.977C684.205 327.249 694.64 349.053 695.645 366.061C696.472 379.746 691.227 413.996 685.444 426.424C680.146 437.829 655.307 446.522 643.041 449.341L530.539 318.413C532.573 311.139 536.032 304.341 540.715 298.415C545.399 292.489 551.213 287.553 557.82 283.894Z" fill="#263238"/>
<path d="M538.422 301.53L565.362 296.717C550.617 331.829 546.612 412.11 538.189 449.251C528.239 434.883 505.16 390.881 506.4 373.406C507.639 355.931 506.471 298.567 538.422 301.53Z" fill="#263238"/>
<path d="M666.317 359.972C664.862 339.462 651.572 322.651 631.654 317.569L569.531 301.728C542.698 298.836 524.774 331.847 523.014 358.787C521.057 388.726 519.853 420.3 523.356 442.642C530.378 487.542 564.789 493.361 564.789 493.361C564.789 493.361 564.789 514.734 564.789 527.844L585.569 613.891L652.542 521.361L666.407 360.547C666.461 359.757 666.317 360.996 666.317 359.972Z" fill="#FFBE9D"/>
<path d="M624.36 477.359C624.36 477.359 609.741 508.268 564.805 503.904V493.343C585.753 493.632 606.371 488.098 624.36 477.359Z" fill="#EB996E"/>
<path d="M535.208 317.748C537.956 310.995 545.373 306.972 552.647 306.577C559.921 306.182 567.015 308.966 573.373 312.612C600.116 328.075 613.873 365.414 640.292 381.417C646.794 385.35 655.253 381.74 660.784 386.948C666.316 392.157 669.89 400.49 666.837 407.441C670.623 402.74 673.713 397.521 676.014 391.941C678.026 386.248 678.277 379.656 675.26 374.43C672.979 370.461 668.938 367.444 667.843 363.008C666.855 359.092 668.399 355.015 668.238 350.992C667.78 346.904 666.372 342.98 664.125 339.534C653.762 321.233 639.52 304.673 621.183 294.364C609.211 287.452 595.582 283.932 581.76 284.181C567.859 284.493 554.529 289.775 544.188 299.07C538.279 304.584 532.065 310.277 535.208 317.748Z" fill="#263238"/>
<path d="M660.137 392.516C660.604 391.223 684.042 382.781 684.347 407.674C684.652 431.866 660.244 427.107 660.191 426.406C660.137 425.706 660.137 392.516 660.137 392.516Z" fill="#FFBE9D"/>
<path d="M667.572 417.175C667.68 417.175 667.985 417.462 668.703 417.786C669.718 418.189 670.849 418.189 671.864 417.786C674.397 416.834 676.516 412.739 676.588 408.393C676.638 406.315 676.22 404.253 675.367 402.358C675.128 401.606 674.711 400.922 674.151 400.366C673.591 399.809 672.905 399.396 672.152 399.161C671.67 399.036 671.159 399.084 670.709 399.297C670.259 399.511 669.899 399.876 669.691 400.328C669.368 401.011 669.53 401.496 669.386 401.532C669.242 401.568 668.865 401.137 669.063 400.131C669.195 399.537 669.524 399.005 669.996 398.622C670.321 398.367 670.693 398.178 671.09 398.067C671.488 397.956 671.904 397.925 672.313 397.976C673.31 398.161 674.242 398.601 675.02 399.252C675.797 399.904 676.393 400.744 676.749 401.693C677.807 403.772 678.331 406.08 678.276 408.41C678.168 413.296 675.726 417.875 672.224 418.917C671.579 419.113 670.9 419.161 670.234 419.058C669.569 418.956 668.935 418.705 668.38 418.324C667.608 417.768 667.482 417.229 667.572 417.175Z" fill="#EB996E"/>
<path d="M669.764 380.087C669.257 379.861 668.77 379.59 668.309 379.279C667.375 378.687 665.938 377.896 664.25 376.693C659.48 373.208 655.097 369.222 651.175 364.803C645.471 358.192 640.14 351.266 635.209 344.06C629.268 335.228 622.593 326.913 615.255 319.203C611.339 315.351 607.015 311.936 602.36 309.02C597.998 306.36 593.33 304.238 588.459 302.698C580.19 300.045 571.495 298.979 562.83 299.555C556.984 299.911 551.21 301.041 545.66 302.913C543.667 303.524 542.194 304.188 541.17 304.584C540.662 304.817 540.132 305.003 539.59 305.14C540.068 304.854 540.566 304.601 541.081 304.386C542.521 303.697 544.002 303.097 545.517 302.59C551.062 300.526 556.874 299.268 562.776 298.854C571.543 298.137 580.366 299.113 588.764 301.728C593.731 303.258 598.49 305.393 602.935 308.086C607.659 311.045 612.049 314.508 616.028 318.413C623.412 326.199 630.106 334.612 636.035 343.557C640.914 350.764 646.165 357.712 651.768 364.372C655.611 368.799 659.876 372.841 664.502 376.442C666.154 377.681 667.537 378.525 668.417 379.171C668.89 379.439 669.341 379.746 669.764 380.087Z" fill="#455A64"/>
<path d="M663.676 386.93C664.053 393.54 664.358 400.508 661.305 406.381C658.252 412.254 650.529 416.259 644.818 412.972C640.13 410.296 638.73 404.28 637.921 398.945C635.64 383.536 634.581 367.964 632.156 352.573L663.676 386.93Z" fill="#263238"/>
<path d="M541.172 306.254C541.172 306.38 543.309 305.841 547.171 305.715C552.651 305.631 558.094 306.626 563.191 308.643C566.706 310.004 570.066 311.738 573.213 313.815C576.819 316.236 580.274 318.875 583.558 321.717C591.167 328.153 597.969 335.486 603.816 343.557C606.888 347.867 609.617 352.303 612.563 356.416C615.36 360.415 618.615 364.074 622.261 367.318C628.534 372.634 635.391 377.219 642.7 380.985C648.896 384.254 654.068 386.553 657.643 388.169L661.773 389.965C662.249 390.199 662.749 390.379 663.264 390.504C662.84 390.196 662.382 389.937 661.899 389.732L657.858 387.738C654.266 385.942 649.255 383.572 643.167 380.213C635.99 376.349 629.257 371.712 623.087 366.384C619.528 363.174 616.357 359.557 613.641 355.608C610.749 351.549 608.037 347.113 604.93 342.749C599.019 334.592 592.118 327.201 584.384 320.748C581.031 317.897 577.504 315.258 573.823 312.845C570.59 310.769 567.139 309.053 563.532 307.727C558.309 305.747 552.73 304.879 547.153 305.176C545.647 305.264 544.152 305.474 542.681 305.805C542.159 305.885 541.652 306.036 541.172 306.254Z" fill="#455A64"/>
<path d="M664.34 371.988C664.993 372.549 665.711 373.031 666.477 373.424L672.619 377.016L674.667 378.184C675.475 378.673 676.384 378.974 677.325 379.064C677.897 379.126 678.473 378.993 678.959 378.687C679.219 378.504 679.435 378.266 679.59 377.99C679.746 377.713 679.837 377.405 679.857 377.088C679.804 375.978 679.409 374.912 678.726 374.035L671.542 362.648L670.572 363.528C675.314 367.022 681.124 368.755 687.005 368.431C687.757 368.426 688.503 368.298 689.214 368.054C689.612 367.924 689.978 367.711 690.288 367.43C690.597 367.148 690.843 366.804 691.01 366.42C691.148 366.01 691.183 365.573 691.111 365.147C691.038 364.721 690.862 364.319 690.597 363.977C690.198 363.427 689.74 362.921 689.232 362.469C686.038 359.381 683.266 355.884 680.989 352.07C678.98 348.487 677.228 344.766 675.744 340.935C675.857 342.048 676.117 343.141 676.517 344.185C677.421 347.092 678.625 349.897 680.109 352.555C682.316 356.516 685.073 360.144 688.298 363.331C689.196 364.193 690.094 365.127 689.753 365.935C689.412 366.743 688.083 367.084 686.808 367.084C684.042 367.224 681.272 366.89 678.618 366.097C675.974 365.32 673.479 364.106 671.236 362.505L668.363 360.385L670.285 363.385L677.469 374.682C678.029 375.358 678.385 376.18 678.492 377.052C678.492 377.735 677.882 378.13 677.109 378.076C675.556 377.77 674.079 377.16 672.763 376.28L666.441 373.047C665.78 372.621 665.076 372.266 664.34 371.988Z" fill="#455A64"/>
<path d="M784.347 824.364C784.21 824.382 784.071 824.382 783.934 824.364L782.677 824.49L777.881 824.885C773.715 825.226 767.68 825.621 760.209 826.07C745.284 826.95 724.648 827.866 701.839 828.243C679.029 828.62 658.34 828.405 643.397 828.01C635.925 827.83 629.873 827.615 625.706 827.435L620.893 827.184H619.636H619.223H619.636H620.893H625.706L643.415 827.489C658.358 827.705 679.011 827.812 701.821 827.489C724.63 827.166 745.248 826.304 760.173 825.585L777.863 824.705L782.677 824.49H783.916L784.347 824.364Z" fill="white"/>
</svg>
